<svg width="200" height="36" fill="none" xmlns="http://www.w3.org/2000/svg"><g style="mix-blend-mode:luminosity" clip-path="url(#clip0)"><path d="M65.881 29.708h-3.963v-15.04H54.43v15.04h-3.963V11.234H65.88v18.474zm21.89-7.838H72.736c.26 1.41.893 2.585 1.907 3.518 1.023.923 2.233 1.39 3.665 1.39 2.14 0 3.712-.961 4.707-2.902h4.391c-1.572 4.227-4.595 6.336-9.098 6.336-2.781 0-5.07-.915-6.865-2.753-1.805-1.838-2.707-4.18-2.707-6.988 0-2.697.921-5.001 2.754-6.914 1.832-1.903 4.074-2.864 6.744-2.864 2.093 0 3.935.56 5.535 1.68 1.6 1.119 2.726 2.658 3.386 4.646.41 1.222.614 2.836.614 4.851zm-4.066-3.265c-.307-1.316-.949-2.36-1.916-3.154-.959-.784-2.103-1.176-3.442-1.176-2.93 0-4.773 1.437-5.535 4.33h10.893zm20.838 11.103h-3.963v-7.763c-1.368.588-2.959.886-4.745.886-1.655 0-3.014-.447-4.065-1.362-1.126-.952-1.684-2.24-1.684-3.863v-6.372h3.86v5.71c0 1.754.82 2.622 2.494 2.622 1.572 0 2.958-.29 4.14-.896v-7.436h3.963v18.474zm21.888-7.838h-15.032c.26 1.41.893 2.585 1.916 3.518 1.014.923 2.232 1.39 3.656 1.39 2.139 0 3.712-.961 4.707-2.902h4.4c-1.572 4.227-4.614 6.336-9.107 6.336-2.782 0-5.07-.915-6.866-2.753-1.795-1.838-2.688-4.18-2.688-6.988 0-2.697.912-5.001 2.744-6.914 1.833-1.903 4.084-2.864 6.745-2.864 2.093 0 3.935.56 5.535 1.68 1.6 1.11 2.725 2.658 3.404 4.646.391 1.222.586 2.836.586 4.851zm-4.065-3.265c-.307-1.316-.949-2.36-1.916-3.154-.958-.784-2.102-1.176-3.442-1.176-2.93 0-4.772 1.437-5.535 4.33h10.893zm23.424 11.103h-4.037V17.196l-8.791 12.512h-3.637V11.234h3.962v12.428l8.866-12.428h3.637v18.474z" fill="#E30A1A"/><path fill-rule="evenodd" clip-rule="evenodd" d="M140.096 8.108c-.67-1.25-1.647-4.012 2.046-5.234-.028.046-.186.233-.353.438-.261.336-.512 1.68.428 1.68 3.479 0 2.67-5.515 9.246-4.936-2.716.15-3.051 1.474-3.228 3.303-.158 1.642-2.083 5.458-8.139 4.749z" fill="#E20D1B"/><path d="M153.036 25.35c1.21 0 2.177.98 2.177 2.184a2.183 2.183 0 01-2.177 2.183c-1.2 0-2.177-.98-2.177-2.183 0-1.204.968-2.184 2.177-2.184z" fill="#E20D1B"/><path d="M0 15.05v-3.854h6.419v18.52l-3.972-.008V15.087L0 15.05z" fill="#E30613"/><path d="M24.511 15.152v-3.974H9.321v18.548h15.19V15.152zM20.55 25.714h-.456c.074-.662-.214-1.353-.55-1.782-.436-.56-.818-.522-1.274-.942-.474-.439-.93-1.297-.753-3.144-2.819 2.267-1.656 4.487-2.233 4.46-.54-.029-.353-1.755-.353-1.755s-.838.448-1.126 1.792c-.111.532-.018 1.026.093 1.38h-.614v-10.57h7.266v10.561zm22.055-14.536h-15.19v18.548h15.19V11.178zm-3.963 14.536h-.456c.075-.662-.214-1.353-.548-1.782-.438-.56-.82-.522-1.275-.942-.474-.439-.93-1.297-.753-3.144-2.82 2.267-1.656 4.487-2.233 4.46-.54-.029-.354-1.755-.354-1.755s-.837.448-1.125 1.792c-.112.532-.019 1.026.093 1.38h-.614v-10.57h7.265v10.561zM174.86 12.176c1.377.765 2.446 1.838 3.228 3.228.781 1.39 1.172 2.986 1.172 4.805 0 1.81-.391 3.425-1.172 4.824-.782 1.4-1.861 2.482-3.228 3.238-1.377.765-2.93 1.138-4.67 1.138-2.409 0-4.316-.802-5.73-2.416v8.695h-4.187V11.243h3.982v2.351a6.412 6.412 0 012.558-1.912c1.014-.43 2.14-.635 3.368-.635 1.749-.01 3.302.373 4.679 1.129zm-1.34 12.092c.996-1.026 1.489-2.389 1.489-4.068 0-1.68-.493-3.032-1.489-4.068-.995-1.036-2.26-1.549-3.804-1.549-1.005 0-1.907.233-2.717.69a4.914 4.914 0 00-1.907 1.97c-.465.848-.707 1.837-.707 2.957 0 1.12.233 2.109.707 2.958a5.035 5.035 0 001.907 1.968c.8.458 1.712.69 2.717.69 1.544 0 2.809-.512 3.804-1.548z" fill="#E30A1A"/><path fill-rule="evenodd" clip-rule="evenodd" d="M199.789 11.243h-.065l.009-.01h-4.018l-5.117 12.158-6.112-12.148h-4.353l8.381 17.102-3.107 7.39h3.796l2.13-4.973 8.456-19.519z" fill="#E30A1A"/></g><defs><clipPath id="clip0"><path fill="#fff" d="M0 0h199.791v35.735H0z"/></clipPath></defs></svg>