<svg width="127" height="61" fill="none" xmlns="http://www.w3.org/2000/svg"><g clip-path="url(#clip0)"><path d="M126.939.276H.059V60.67h126.88V.276z" fill="#3B3B3B"/><path d="M126.939.276H.059V60.67h126.88V.276z" stroke="#1B1918" stroke-width=".425"/><path fill-rule="evenodd" clip-rule="evenodd" d="M32.696 36.479l-1.546 2.333-1.555-2.333h-.898v4.482h.97v-2.766l1.196 1.807h.563l1.196-1.798v2.76h.97v-4.482h-.896v-.003zm10.416 0v4.482h3.228v-.844h-2.26v-.999h2.024v-.838h-2.023v-.954h2.22v-.847h-3.19zm13.507 1.666v-.8h2.362v-.863h-3.33v4.482h1.966c.179 0 .352-.011.523-.04.167-.028.326-.073.471-.135.145-.061.273-.149.384-.256a1.12 1.12 0 00.259-.402c.062-.16.093-.352.093-.574 0-.22-.03-.41-.093-.571a1.07 1.07 0 00-.259-.402 1.268 1.268 0 00-.384-.256 1.985 1.985 0 00-.471-.138 2.92 2.92 0 00-.523-.04h-.998v-.005zm0 1.972v-1.125h1.003c.097 0 .188.005.276.02a.688.688 0 01.236.08c.068.04.125.097.162.172a.61.61 0 01.062.29.622.622 0 01-.062.293.414.414 0 01-.162.172.752.752 0 01-.236.081c-.088.014-.179.02-.276.02H56.62v-.003zm11.942-3.638v4.482h3.228v-.844h-2.256v-.999h2.023v-.838h-2.023v-.954h2.22v-.847H68.56zm13.337 0c-.017.228-.031.459-.048.695-.014.236-.031.473-.051.706-.02.234-.043.462-.071.678-.029.217-.063.42-.103.605-.04.186-.09.35-.15.49s-.131.253-.21.335a.443.443 0 01-.285.135.86.86 0 01-.173-.006.679.679 0 01-.14-.028v.844c.091.031.18.053.262.065.085.014.165.02.244.02.208-.003.39-.051.543-.141.157-.093.29-.223.398-.391.11-.166.205-.366.279-.594.073-.228.136-.478.187-.751.051-.273.091-.56.122-.864.032-.304.06-.616.086-.934h1.242v3.618h.969V36.48h-3.1zm14.33 4.485c.275 0 .53-.023.766-.073a1.77 1.77 0 00.62-.245c.179-.115.315-.27.415-.464.1-.192.15-.436.153-.723-.002-.287-.05-.53-.153-.723a1.19 1.19 0 00-.415-.462 1.817 1.817 0 00-.62-.245 3.657 3.657 0 00-.767-.076h-.739V36.48h-.969v4.482h1.708v.003zm-.74-2.166h.785c.125 0 .244.008.352.028.11.02.207.056.293.104.085.05.15.115.199.202a.681.681 0 01.073.324.65.65 0 01-.073.323.508.508 0 01-.2.203.839.839 0 01-.292.104c-.11.02-.227.031-.352.028h-.785v-1.316zM61.117 32.23a9.918 9.918 0 00-2.438.276c-.572.172-.327-.048-.594-.532-.177-.318-.543-.43-.833-.197a.692.692 0 00-.128.144c-.213.31-.176.996.253 1.117v.498h-3.459a.498.498 0 01-.415-.214.49.49 0 01-.062-.459l4.53-12.605a.502.502 0 01.477-.335h2.584v5.057l-.881 3.168h1.924l-.881-3.168v-5.054h2.583c.219 0 .406.13.477.335l4.53 12.605a.49.49 0 01-.062.459.498.498 0 01-.415.214h-3.456v-.498c.43-.121.466-.808.253-1.117a.522.522 0 00-.128-.144c-.29-.23-.656-.12-.832.197-.268.484-.023.703-.594.532-.75-.194-1.592-.282-2.433-.279zm-2.55-2.14a1.05 1.05 0 00-.752.354 1.25 1.25 0 00-.228.343c-.04.093-.12.34-.12.475 0 .228.115.104.325.155.145.034.273.11.395.24.244.253.179.489.264.582.014.014.134.047.299-.003.65-.197 1.796-.262 2.367-.265.571.003 1.716.068 2.367.265.162.05.284.017.296.003.085-.093.023-.33.264-.583a.775.775 0 01.395-.239c.21-.05.324.073.324-.155 0-.135-.077-.382-.12-.475a1.279 1.279 0 00-.23-.343 1.04 1.04 0 00-.753-.355h-5.092zm38.846 3.446h4.53a.5.5 0 00.489-.369l.344-1.243a.502.502 0 01.489-.369h2.683c.233 0 .429.15.488.369l.344 1.243a.5.5 0 00.489.369h4.53a.498.498 0 00.415-.211.484.484 0 00.063-.459l-4.522-12.608a.501.501 0 00-.477-.335h-5.332a.495.495 0 00-.477.335l-4.53 12.605a.483.483 0 00.065.459.48.48 0 00.41.214zm7.199-8.846l.81 3.46h-1.62l.81-3.46zm-89.419 8.846h4.53a.5.5 0 00.488-.369l.344-1.243a.498.498 0 01.489-.369h2.683a.5.5 0 01.489.369l.343 1.243c.06.222.26.369.49.369h4.53c.17 0 .318-.076.414-.211a.476.476 0 00.063-.459L25.53 20.258a.502.502 0 00-.477-.335H19.72a.495.495 0 00-.478.335l-4.53 12.605a.483.483 0 00.066.459c.096.14.244.214.415.214zm7.195-8.846l.81 3.46h-1.617l.807-3.46zm11.097 8.846h4.485a.506.506 0 00.508-.504v-8.657c0-.276.228-.504.509-.504h1.873a.505.505 0 00.506-.504V20.43a.507.507 0 00-.506-.504H30.6a.51.51 0 00-.508.504v2.94c0 .279.227.504.509.504h1.872c.279 0 .509.225.509.504v8.657a.5.5 0 00.503.5zm9.751 0h8.333a.508.508 0 00.508-.504V30.09c0-.278-.23-.5-.508-.5h-2.834a.51.51 0 01-.508-.504V20.43a.508.508 0 00-.51-.504h-4.484a.508.508 0 00-.508.504v12.605c.002.276.23.5.511.5zm27.507 0h4.21a.508.508 0 00.508-.504v-6.03l3.567 6.278c.09.163.252.256.443.256h4.283a.508.508 0 00.508-.504V20.427a.508.508 0 00-.508-.504h-4.21a.51.51 0 00-.508.504v5.895l-3.487-6.143a.492.492 0 00-.44-.256h-4.36a.51.51 0 00-.509.504v12.605a.5.5 0 00.503.504zm18.286 0h4.482a.508.508 0 00.508-.504v-8.657c0-.276.228-.504.506-.504h1.873a.508.508 0 00.509-.504V20.43a.507.507 0 00-.509-.504H86.141a.51.51 0 00-.508.504v2.94c0 .279.227.504.508.504h1.873c.279 0 .509.225.509.504v8.657c-.003.276.227.5.506.5z" fill="#fff"/></g><defs><clipPath id="clip0"><path fill="#fff" d="M0 0h127v61H0z"/></clipPath></defs></svg>