<svg width="186" height="58" fill="none" xmlns="http://www.w3.org/2000/svg"><g style="mix-blend-mode:luminosity"><path d="M5.08 54.064H2.59l1.243-3.355 1.248 3.355zM.73 56.55h.967l.617-1.729h3.053l.617 1.73h.952l-2.582-6.74H3.315l-2.586 6.74zm9.583-3.219c.493 0 .858.1 1.096.3.237.2.356.511.356.933 0 .418-.119.73-.356.933-.237.204-.603.304-1.096.304h-1.47v-2.47h1.47zM10.2 50.56c.447 0 .781.084 1 .253.22.169.33.424.33.763 0 .343-.11.597-.33.765-.219.167-.552.25-1 .25H8.84V50.56h1.36zm-2.274 5.99h2.433c.76 0 1.344-.163 1.756-.492.411-.328.617-.793.617-1.395 0-.457-.125-.839-.374-1.144-.25-.306-.6-.507-1.051-.603.375-.06.66-.212.853-.456.194-.244.29-.572.29-.984 0-.532-.188-.943-.566-1.232-.379-.29-.916-.433-1.615-.433H7.925v6.74zm5.435-5.973h2.404v5.973h.922v-5.973h2.404v-.768h-5.73v.768zm10.947.592c.389.494.583 1.166.583 2.019 0 .848-.194 1.52-.583 2.013-.39.493-.916.74-1.582.74-.665 0-1.194-.247-1.585-.74-.392-.493-.587-1.165-.587-2.013 0-.852.195-1.524.587-2.019.392-.493.92-.74 1.585-.74.666 0 1.194.246 1.582.74zm-3.866-.53c-.57.634-.855 1.483-.855 2.549 0 1.065.285 1.913.855 2.546.57.633 1.332.947 2.284.947.95 0 1.71-.316 2.278-.95.568-.633.853-1.48.853-2.543 0-1.066-.285-1.915-.853-2.55-.568-.633-1.328-.95-2.278-.95-.952 0-1.713.317-2.284.95zM32.454 58h.772v-2.217h-.772V49.81h-.916v5.973h-3.33V49.81h-.916v6.74h5.162V58zm2.05-1.449h4.366v-.768h-3.448v-2.441h3.226v-.768h-3.226v-1.996h3.367v-.768h-4.283v6.741h-.002zm5.872 0h.916v-3.21h3.33v3.21h.916v-6.74h-.915v2.764h-3.331v-2.763h-.916v6.74zm6.049-5.973h2.404v5.973h.921v-5.973h2.405v-.768h-5.732v.768h.002zm8.683-.017c.427 0 .756.11.99.33.232.22.348.53.348.934 0 .406-.116.72-.349.939-.233.22-.563.33-.989.33h-1.153V50.56h1.153zm-2.069 5.99h.916v-2.708h1.153c.76 0 1.334-.17 1.722-.51.39-.341.583-.844.583-1.508 0-.66-.194-1.16-.583-1.501-.39-.342-.963-.512-1.722-.512H53.04v6.74zm9.117-2.487h-2.49l1.242-3.355 1.248 3.355zm-4.352 2.487h.967l.617-1.729h3.053l.617 1.73h.952l-2.582-6.74H60.39l-2.586 6.74zm9.583-3.219c.493 0 .858.1 1.097.3.237.2.355.511.355.933 0 .418-.118.73-.355.933-.237.204-.604.304-1.097.304h-1.47v-2.47h1.47zm-.114-2.771c.447 0 .78.084 1 .253.22.169.33.424.33.763 0 .343-.11.597-.33.765-.22.167-.552.25-1 .25h-1.357v-2.031h1.357zM65 56.55h2.433c.76 0 1.344-.163 1.756-.492.411-.328.617-.793.617-1.395 0-.457-.125-.839-.374-1.144-.25-.306-.6-.507-1.05-.603.374-.06.66-.212.852-.456.194-.244.29-.572.29-.984 0-.532-.188-.943-.566-1.232-.379-.29-.916-.433-1.615-.433h-2.341v6.74H65zm5.435-5.973h2.404v5.973h.922v-5.973h2.404v-.768h-5.731v.768h.001zm10.947.592c.39.494.583 1.166.583 2.019 0 .848-.194 1.52-.583 2.013-.39.493-.916.74-1.582.74-.665 0-1.194-.247-1.585-.74-.392-.493-.587-1.165-.587-2.013 0-.852.195-1.524.587-2.019.392-.493.92-.74 1.585-.74.666 0 1.194.246 1.582.74zm-3.866-.53c-.57.634-.855 1.483-.855 2.549 0 1.065.285 1.913.855 2.546.57.633 1.332.947 2.284.947.95 0 1.71-.316 2.278-.95.569-.633.853-1.48.853-2.543 0-1.066-.284-1.915-.853-2.55-.568-.633-1.328-.95-2.278-.95-.952 0-1.714.317-2.284.95zm7.765 5.911v-5.973h3.299v-.768h-4.215v6.74h.916v.001zm8.645-6.74l-3.004 5.639v-5.638h-.889v6.74h1.234l3.004-5.639v5.638h.889v-6.74h-1.234zm3.057 6.74h.916v-2.21l1.24-1.26 2.35 3.47h.998l-2.754-4.076 2.618-2.663h-1.175l-3.275 3.332V49.81h-.916v6.741h-.002z" fill="#1B1918"/><path d="M185.999.23h-60.624v44.89h60.624V.23z" fill="#fff"/><path d="M125.376 0H0v45.007h125.376V0z" fill="#ECEDED"/><path fill-rule="evenodd" clip-rule="evenodd" d="M125.373 0h60.626v45.007h-60.626V0zm17.021 30.238l-.835 2.448-1.401 3.82c.457.022.861.033 1.219.033 3.03 0 4.945-1.134 5.744-3.41 1.681-4.812 2.941-8.425 3.773-10.841h-5.671l-2.829 7.95zm-3.196 2.364l.901-2.567c-1.156-.22-2.15-.622-2.982-1.202-1.546-1.08-2.325-2.667-2.325-4.755 0-2.49.939-4.803 2.813-6.947 1.344-1.541 2.811-2.548 4.4-3.02l.999-2.843c-2.311.23-4.496.859-6.551 1.89-2.812 1.415-4.961 3.383-6.449 5.904-1.064 1.79-1.592 3.554-1.592 5.288 0 3.122 1.51 5.386 4.528 6.79 1.7.789 3.786 1.277 6.258 1.462zm6.211-21.432l-.903 2.63a4.376 4.376 0 00-.151 1.07c0 1.059.415 1.942 1.245 2.647.799.673 1.734 1.006 2.796 1.006 1.074 0 2.009-.333 2.797-1.006.84-.705 1.26-1.588 1.26-2.647 0-1.038-.425-1.921-1.277-2.647a4.075 4.075 0 00-2.781-1.054h-2.986v.001zm38.451 0l-12.431 11.118h1.152c1.422 0 2.132.626 2.132 1.88 0 .417-.099.898-.291 1.44l-1.614 4.631h6.309c-.467 1.634-1.941 2.448-4.42 2.448h-5.323c-1.459 0-2.189-.542-2.189-1.633 0-.256.046-.527.14-.814l2.019-6.101-7.934 7.114c-1.073.956-2.308 1.437-3.709 1.437h-2.554l6.2-17.664h-8.494l2.325-3.853h9.469c1.734 0 2.6.658 2.6 1.974 0 .449-.099.965-.301 1.56l-3.694 11.024 15.865-14.558h4.743v-.003z" fill="#004E94"/><path fill-rule="evenodd" clip-rule="evenodd" d="M43.661 8.69c-5.93 0-11.653 1.26-17.391 2.77-6.074 1.6-10.12 3.496-16.64 3.544.332 1.146 2.609.516 3.454.479 1.273-.055 2.614-.351 3.935-.36 4.791-.032 11.254.773 11.379.713.287-1.372-3.168-2.057 1.822-3.586 5.34-1.635 13.5-1.774 18.996-1.774 3.24 0 6.514.437 9.817.757C58.039 8.471 46.92 8.69 43.66 8.69zM54.316 8c1.39.211 2.77.51 4.142.848 3.977.978 20.62 6.52 21.769 8.658-1.733-.001-6.576-2.232-8.5-2.941-2.242-.826-6.753-2.462-8.974-2.48.8 1.452 3.894 4.363 5.22 5.374 1.493 1.138 2.389 1.02 4.161.94 1.626-.075 3.275-.106 4.894-.196 3.213-.178 6.512-.28 9.733-.389 3.28-.11 6.582-.306 9.86-.306h3.074c5.565 0 11.984.821 16.719 4.35 1.807 1.347 4.03 3.646 5.083 5.762.826 1.66 1.034 2.745.941 4.648-.067 1.396-.184 3.4-1.333 4.243 0-3.191.299-5.585-1.242-8.458-1.952-3.638-2.82-1.808-5.626-3.674-1.868-1.243-3.297-3.207-5.346-3.983-5.458-2.068-19.142-1.12-25.323-.925-5.76.18-11.617.596-17.364.596H62.05c-2.004 0-10.045.03-11.38-1.077l14.4-.054c-1.506-2.096-3.672-4.535-5.355-6.536-.741-.88-3.96-.794-4.984-.887-6.079-.548-22.337-1.151-26.128 2.664l1.052 1.389 12.223 2.417-.002.326c-8.415-1.35-15.404-2.502-23.348-1.75-2.302 0-3.79 1.27-5.898 2.182-2.204.951-4.137 1.467-6.51 1.507-.09.409-.64 1.38-.827 1.946-.913 2.773-.388 6.114.287 9.015-.93-.7-1.349-3.433-1.349-4.587v-1.55c0-1.656.347-4.11 1.024-5.6.886-1.947 1.417-2.424 3.198-3.295l-1.363-1.29c.26-.192 1.375-1.074 1.576-1.12.212-.048 2.184-.076 2.526-.068 1.322.03 3.489-.264 4.783-.633 4.063-1.154 7.972-2.76 12.066-3.692a75.236 75.236 0 014.375-.886c1.492-.247 3.121-.482 4.624-.61 5.755-.492 11.54-.748 17.276.122z" fill="#1B1918"/><path fill-rule="evenodd" clip-rule="evenodd" d="M37.276 34.793c-.165-3.64-.932-6.686-3.911-9.185-3.068-2.575-6.158-3.316-10.305-3.149l-.697.029c-2.902.116-5.902 1.218-8.013 3.154-1.75 1.607-3.25 3.793-3.92 6.007-.754-2.037 1.404-5.357 3.243-7.194 2.027-2.026 5.006-3.311 7.88-3.86 7.668-1.234 12.02 1.605 14.812 4.904 1.881 2.227 2.971 6.663.911 9.294zm77.563-3.037v.775c0 .648-.102 2.747-.478 3.262l-.408.014c0-3.49-.206-6.293-2.706-9.006-2.063-2.237-5.26-3.606-8.388-3.898-3.422-.32-7.533.548-10.206 2.676-2.086 1.662-3.488 4.684-3.828 7.25H88.3c.1-2.858 1.696-6.353 4.008-8.383 2.313-2.03 5.446-3.411 9.504-3.411 6.25-.003 13.028 4.37 13.028 10.721zm5.513-.489v1.608c0 .785-.326 2.135-.968 2.557-.672-.422-.757-1.237-.757-2.02V29.42c0-.631.09-1.182.809-1.127.697.606.916 2.048.916 2.974zM6.717 24.058v4.349c.108.5-1.145.847-1.133-.06v-3.991c0-1.02 1.133-1.268 1.133-.298zm76.755 11.174c-.645 1.134-4.557.35-6.616.195l-3.638-.274c-1.5-.112-2.092-.195-2.092-1.361 0-.287-.098.785.213-1.06.237-1.411 1.158-4.565 2.423-7.46-6.057-.49-12.286-.434-17.69-.13-4.48.253-10.115 1.004-13.966 2.072-.878-.242-1.257-1.82-.512-1.986 5.462-1.215 12.915-1.699 18.192-1.746 5.66-.05 8.355-.12 14.504.638.234-.483.477-.949.727-1.39 4.374.117 1.907-2.194 5.866-1.913a51.326 51.326 0 00-2.049 3.945c3.946.717 7.654 2.078 8.764 2.932-2.828-.867-5.954-1.494-9.212-1.931-1.216 2.816-2.057 5.627-2.418 8.454l7.504 1.015z" fill="#1B1918"/><path fill-rule="evenodd" clip-rule="evenodd" d="M66.651 33.395c-.338.579-.6.657-1.03.868-.608.3-1.445.215-2.153.204-2.092-.032-4.447-.072-6.068-.098-1.62-.025-1.998.228-2.448-.387-.75.543-1.821.449-3.172.524l-2.787.157c-.82.045-1.513.056-1.918-.317-.447-.41-.526-.684-.567-1.265-.029-.4-.029-.47.161-1.363.19-.892.778-2.629 1.229-3.866 1.775-.537 4.193-.927 6.134-1.036-.834 2.193-1.49 4.307-1.936 6.5l3.073-.157c.418-2.227.955-4.338 1.815-6.618.913-.16 3.629-.323 5.51-.234a39.941 39.941 0 00-1.944 6.87l6.101.218zm41.895-7.351a7.363 7.363 0 012.093 3.238c.279.86.394 1.603.34 2.232-.183 2.441-1.16 4.359-2.915 5.743-1.681 1.334-3.871 2.008-6.557 2.023-3.125.03-5.532-.652-7.214-2.045-1.491-1.228-2.244-2.839-2.244-4.846a7 7 0 01.1-1.184c.347-2.21 1.337-3.946 2.978-5.205 1.75-1.325 4.08-2.02 6.997-1.993 3.342.037 5.157.886 6.422 2.037zm-7.117-.096a6.8 6.8 0 01-.24 1.695c-.21.741-.61 1.524-1.347 1.927-.737.404-1.709.441-2.567.362a10.15 10.15 0 01-1.876-.366c.552-.997 1.409-1.858 2.452-2.491a7.954 7.954 0 013.578-1.127zm-6.358 4.317c.291.07 1.056.277 1.794.623.743.347 1.46.83 1.65 1.475.192.645-.18 1.453-.647 2.142a10.106 10.106 0 01-1.242 1.468 5.1 5.1 0 01-1.516-1.933c-.326-.741-.44-1.775-.369-2.44.073-.667.163-.908.33-1.335zm2.251 6.183c.33-.423 1.946-2.383 3.804-2.357 1.859.025 3.157 1.979 3.382 2.349a7.947 7.947 0 01-3.684.907c-1.324.002-2.524-.33-3.502-.899zm7.97-.48a6.824 6.824 0 01-.989-1.404c-.353-.686-.578-1.513-.229-2.229.349-.716 1.192-1.227 2.013-1.579.82-.35 1.62-.54 1.876-.595.092.437.139.688.086 1.366-.052.677-.368 1.723-.843 2.478a6.89 6.89 0 01-1.914 1.963zm2.431-6.592a13.6 13.6 0 01-1.997.427c-.907.117-1.897.117-2.471-.255-.572-.373-.802-1.146-.887-1.893a8.301 8.301 0 01.004-1.715c1.262.067 2.404.442 3.325 1.04.926.6 1.633 1.427 2.026 2.396zm-6.954 8.568c2.051 0 3.983-.726 5.431-1.895 1.444-1.168 2.404-2.78 2.536-4.526.132-1.746-.576-3.297-1.816-4.408-1.231-1.104-2.991-1.771-4.987-1.75a8.703 8.703 0 00-5.275 1.845c-1.42 1.125-2.392 2.667-2.58 4.392-.19 1.726.45 3.313 1.652 4.463 1.21 1.158 2.986 1.879 5.039 1.879zM23.517 26.355c-.003.255-.03.957-.24 1.696-.21.742-.61 1.523-1.347 1.927-.737.403-1.71.44-2.567.361a10.162 10.162 0 01-1.876-.365c.552-.997 1.409-1.86 2.452-2.492a7.921 7.921 0 013.578-1.127zm14.001 9.318c-1.16 1.184-2.116 2.241-4.39 3.1-1.932.732-3.755.612-5.82.586-1.514-.02-2.497-.398-2.97-1.137a8.648 8.648 0 003.95-1.767c1.444-1.168 2.404-2.78 2.536-4.526.132-1.748-.577-3.297-1.816-4.408-1.23-1.104-2.991-1.771-4.987-1.75a8.703 8.703 0 00-5.275 1.845c-1.42 1.125-2.392 2.667-2.58 4.393-.19 1.726.45 3.313 1.652 4.463 1.164 1.114 2.853 1.823 4.806 1.875-1.206.953-2.588 1.432-4.143 1.432-1.606 0-2.915-.552-3.915-1.64-1.006-1.096-1.506-2.527-1.506-4.284 0-3.172 1.098-5.684 3.302-7.52 1.992-1.671 4.456-2.503 7.399-2.503 3.925 0 7.41.2 8.833 2.91 1.425 2.709.066 6.04-1.227 9.987 1.652.488 3.724-.085 6.151-1.056zm-13.423 1.993a2.73 2.73 0 01-.088-.717 9.09 9.09 0 01-.708.796c-.128.007-.258.01-.387.01-1.324 0-2.524-.33-3.502-.901.33-.423 1.945-2.383 3.804-2.357 1.859.025 3.157 1.979 3.382 2.349a7.932 7.932 0 01-2.501.82zm-6.937-6.995c.292.07 1.056.277 1.795.623.741.347 1.46.83 1.65 1.475.192.645-.18 1.453-.646 2.142a10.19 10.19 0 01-1.242 1.468 5.087 5.087 0 01-1.515-1.933c-.326-.741-.44-1.775-.37-2.44.072-.667.162-.908.328-1.335zm10.222 5.705a6.816 6.816 0 01-.989-1.405c-.353-.686-.578-1.513-.229-2.229.35-.715 1.192-1.227 2.012-1.578.82-.351 1.62-.54 1.877-.595.091.437.139.687.086 1.364-.053.678-.368 1.723-.843 2.478a6.906 6.906 0 01-1.914 1.965zm2.43-6.593c-.262.078-1.091.311-1.998.428-.906.117-1.896.117-2.47-.256-.572-.373-.803-1.146-.888-1.892a8.316 8.316 0 01.004-1.716c1.262.067 2.405.442 3.326 1.04.927.6 1.634 1.427 2.026 2.396z" fill="#1B1918"/></g></svg>