<svg width="186" height="58" viewBox="0 0 186 58" fill="none" xmlns="http://www.w3.org/2000/svg">
<g style="mix-blend-mode:luminosity">
<path d="M5.08047 54.0639H2.58864L3.83186 50.7095L5.08047 54.0639ZM0.728516 56.5512H1.69562L2.31251 54.8224H5.36602L5.98292 56.5512H6.9352L4.35312 49.8117H3.31464L0.728516 56.5512ZM10.312 53.3322C10.805 53.3322 11.17 53.4327 11.4084 53.6324C11.6454 53.8321 11.764 54.143 11.764 54.5651C11.764 54.9832 11.6454 55.2942 11.4084 55.4979C11.1713 55.7016 10.805 55.8021 10.312 55.8021H8.84112V53.3322H10.312ZM10.1988 50.5608C10.646 50.5608 10.9801 50.6452 11.1996 50.8141C11.4192 50.9829 11.5283 51.2376 11.5283 51.5766C11.5283 51.9197 11.4192 52.1743 11.1996 52.3418C10.9801 52.5093 10.6474 52.5924 10.1988 52.5924H8.84112V50.5608H10.1988ZM7.9252 56.5512H10.3578C11.1174 56.5512 11.702 56.3877 12.1142 56.0594C12.525 55.731 12.7311 55.266 12.7311 54.6643C12.7311 54.2073 12.6058 53.8254 12.3566 53.5198C12.1074 53.2143 11.7572 53.0132 11.306 52.9167C11.6805 52.8564 11.966 52.705 12.1586 52.4611C12.3526 52.2172 12.4496 51.8889 12.4496 51.4774C12.4496 50.9454 12.261 50.534 11.8825 50.2445C11.504 49.955 10.9666 49.8117 10.2675 49.8117H7.9252V56.5512ZM13.3601 50.5782H15.7644V56.5512H16.6857V50.5782H19.09V49.8103H13.3601V50.5782ZM24.3067 51.1705C24.6959 51.6637 24.8899 52.3365 24.8899 53.1888C24.8899 54.0371 24.6959 54.7085 24.3067 55.2017C23.9174 55.6949 23.3907 55.9414 22.7254 55.9414C22.06 55.9414 21.5306 55.6949 21.14 55.2017C20.748 54.7085 20.5527 54.0371 20.5527 53.1888C20.5527 52.3365 20.748 51.6651 21.14 51.1705C21.532 50.6774 22.06 50.4308 22.7254 50.4308C23.3907 50.4295 23.9187 50.676 24.3067 51.1705ZM20.4409 50.6399C19.8712 51.2737 19.5856 52.1234 19.5856 53.1888C19.5856 54.2542 19.8712 55.1025 20.4409 55.7351C21.0107 56.3676 21.7731 56.6825 22.7254 56.6825C23.6749 56.6825 24.4346 56.3663 25.003 55.7324C25.5714 55.0985 25.8556 54.2515 25.8556 53.1888C25.8556 52.1234 25.5714 51.2737 25.003 50.6399C24.4346 50.006 23.6749 49.6897 22.7254 49.6897C21.7731 49.6897 21.012 50.006 20.4409 50.6399ZM32.4543 57.9999H33.2261V55.7833H32.4543V49.8103H31.5384V55.7833H28.2074V49.8103H27.2915V56.5499H32.4543V57.9999ZM34.5043 56.5512H38.8697V55.7833H35.4216V53.3416H38.6475V52.5737H35.4216V50.5782H38.7889V49.8103H34.5057V56.5512H34.5043ZM40.3756 56.5512H41.2915V53.3416H44.6225V56.5512H45.5384V49.8117H44.6225V52.575H41.2915V49.8117H40.3756V56.5512ZM46.4247 50.5782H48.829V56.5512H49.7503V50.5782H52.1546V49.8103H46.4234V50.5782H46.4247ZM55.1084 50.5608C55.5354 50.5608 55.8641 50.6707 56.0971 50.8905C56.3301 51.1102 56.4459 51.4212 56.4459 51.8245C56.4459 52.2306 56.3301 52.5442 56.0971 52.764C55.8641 52.9838 55.5341 53.0936 55.1084 53.0936H53.9554V50.5608H55.1084ZM53.0395 56.5512H53.9554V53.8428H55.1084C55.8681 53.8428 56.4419 53.6726 56.8298 53.3322C57.2191 52.9918 57.413 52.4892 57.413 51.8245C57.413 51.1652 57.2191 50.6653 56.8298 50.3236C56.4405 49.9818 55.8668 49.8117 55.1084 49.8117H53.0395V56.5512ZM62.1556 54.0639H59.6651L60.9083 50.7095L62.1556 54.0639ZM57.8036 56.5512H58.7707L59.3876 54.8224H62.4412L63.0581 56.5512H64.0103L61.4283 49.8117H60.3898L57.8036 56.5512ZM67.3871 53.3322C67.8801 53.3322 68.2451 53.4327 68.4835 53.6324C68.7206 53.8321 68.8391 54.143 68.8391 54.5651C68.8391 54.9832 68.7206 55.2942 68.4835 55.4979C68.2465 55.7016 67.8801 55.8021 67.3871 55.8021H65.9176V53.3322H67.3871ZM67.2726 50.5608C67.7198 50.5608 68.0538 50.6452 68.2734 50.8141C68.4929 50.9829 68.6021 51.2376 68.6021 51.5766C68.6021 51.9197 68.4929 52.1743 68.2734 52.3418C68.0538 52.5093 67.7212 52.5924 67.2726 52.5924H65.9163V50.5608H67.2726ZM65.0003 56.5512H67.4329C68.1926 56.5512 68.7771 56.3877 69.1893 56.0594C69.6001 55.731 69.8062 55.266 69.8062 54.6643C69.8062 54.2073 69.6809 53.8254 69.4318 53.5198C69.1826 53.2143 68.8324 53.0132 68.3811 52.9167C68.7556 52.8564 69.0411 52.705 69.2338 52.4611C69.4277 52.2172 69.5247 51.8889 69.5247 51.4774C69.5247 50.9454 69.3361 50.534 68.9576 50.2445C68.5791 49.955 68.0417 49.8117 67.3427 49.8117H65.0017V56.5512H65.0003ZM70.4352 50.5782H72.8395V56.5512H73.7608V50.5782H76.1651V49.8103H70.4339V50.5782H70.4352ZM81.3818 51.1705C81.7711 51.6637 81.965 52.3365 81.965 53.1888C81.965 54.0371 81.7711 54.7085 81.3818 55.2017C80.9925 55.6949 80.4659 55.9414 79.8005 55.9414C79.1351 55.9414 78.6058 55.6949 78.2151 55.2017C77.8232 54.7085 77.6279 54.0371 77.6279 53.1888C77.6279 52.3365 77.8232 51.6651 78.2151 51.1705C78.6071 50.6774 79.1351 50.4308 79.8005 50.4308C80.4659 50.4295 80.9939 50.676 81.3818 51.1705ZM77.5161 50.6399C76.9463 51.2737 76.6608 52.1234 76.6608 53.1888C76.6608 54.2542 76.9463 55.1025 77.5161 55.7351C78.0858 56.3676 78.8482 56.6825 79.8005 56.6825C80.7501 56.6825 81.5098 56.3663 82.0782 55.7324C82.6466 55.0985 82.9308 54.2515 82.9308 53.1888C82.9308 52.1234 82.6466 51.2737 82.0782 50.6399C81.5098 50.006 80.7501 49.6897 79.8005 49.6897C78.8482 49.6897 78.0858 50.006 77.5161 50.6399ZM85.2812 56.5512V50.5782H88.5798V49.8103H84.3653V56.5499H85.2812V56.5512ZM93.9258 49.8117L90.9222 55.4496V49.8117H90.0332V56.5512H91.267L94.2706 50.9132V56.5512H95.1596V49.8117H93.9258ZM96.9834 56.5512H97.8993V54.3386L99.1385 53.0789L101.489 56.5499H102.487L99.7325 52.4732L102.351 49.8103H101.176L97.9006 53.1419V49.8103H96.9847V56.5512H96.9834Z" fill="#1B1918"/>
<path d="M185.999 0.229248H125.375V45.1213H185.999V0.229248Z" fill="white"/>
<path d="M125.376 0H0V45.0073H125.376V0Z" fill="#ECEDED"/>
<path fill-rule="evenodd" clip-rule="evenodd" d="M125.373 0H185.999V45.0073H125.373V0ZM142.394 30.2376L141.559 32.6861L140.158 36.5068C140.615 36.5283 141.019 36.539 141.377 36.539C144.407 36.539 146.322 35.4052 147.121 33.1297C148.802 28.3172 150.062 24.7042 150.894 22.2879H145.223L142.394 30.2376ZM139.198 32.6016L140.099 30.0353C138.943 29.8141 137.949 29.4134 137.117 28.8332C135.571 27.753 134.792 26.1663 134.792 24.0783C134.792 21.5883 135.731 19.2753 137.605 17.131C138.949 15.5899 140.416 14.5834 142.005 14.1117L143.004 11.2679C140.693 11.4971 138.508 12.1269 136.453 13.1589C133.641 14.5727 131.492 16.5414 130.004 19.0622C128.94 20.8526 128.412 22.6162 128.412 24.3504C128.412 27.4716 129.922 29.7364 132.94 31.1409C134.64 31.9289 136.726 32.4167 139.198 32.6016ZM145.409 11.1701L144.506 13.8008C144.408 14.1867 144.355 14.5419 144.355 14.8702C144.355 15.9289 144.77 16.8121 145.6 17.517C146.399 18.1897 147.334 18.5234 148.396 18.5234C149.47 18.5234 150.405 18.1897 151.193 17.517C152.033 16.8121 152.453 15.9289 152.453 14.8702C152.453 13.8316 152.028 12.9485 151.176 12.2234C150.378 11.5185 149.448 11.1687 148.395 11.1687H145.409V11.1701ZM183.86 11.1701L171.429 22.2879H172.581C174.003 22.2879 174.713 22.9137 174.713 24.1681C174.713 24.5849 174.614 25.066 174.422 25.6088L172.808 30.239H179.117C178.65 31.8726 177.176 32.6874 174.697 32.6874H169.374C167.915 32.6874 167.185 32.1446 167.185 31.0538C167.185 30.7978 167.231 30.5271 167.325 30.2403L169.344 24.1386L161.41 31.2535C160.337 32.209 159.102 32.6901 157.701 32.6901H155.147L161.347 15.0257H152.853L155.178 11.1728H164.647C166.381 11.1728 167.247 11.8308 167.247 13.1468C167.247 13.5957 167.148 14.1117 166.946 14.7067L163.252 25.7307L179.117 11.1728H183.86V11.1701Z" fill="#004E94"/>
<path fill-rule="evenodd" clip-rule="evenodd" d="M43.6613 8.68951C37.7308 8.68951 32.0076 9.95058 26.2697 11.4609C20.1963 13.0597 16.1501 14.956 9.63095 15.0043C9.9623 16.1501 12.2386 15.5202 13.0845 15.4827C14.3574 15.4277 15.6976 15.1316 17.0189 15.1222C21.81 15.0914 28.2726 15.8955 28.3978 15.8365C28.6847 14.4642 25.2298 13.7794 30.2202 12.2503C35.5595 10.6153 43.7206 10.4759 49.2161 10.4759C52.4568 10.4759 55.7299 10.9128 59.0326 11.2331C58.0386 8.47106 46.9196 8.68951 43.6613 8.68951ZM54.3156 8.00067C55.7057 8.21108 57.0863 8.50993 58.4575 8.84764C62.435 9.82595 79.0777 15.3688 80.2267 17.5063C78.4945 17.505 73.6509 15.2736 71.7261 14.5647C69.4848 13.7392 64.9739 12.1028 62.7528 12.0854C63.5529 13.5368 66.6468 16.4476 67.9736 17.4594C69.466 18.5972 70.3617 18.4792 72.1343 18.3988C73.76 18.3238 75.4087 18.293 77.0277 18.2032C80.2415 18.0249 83.5401 17.9231 86.7607 17.8145C90.0405 17.7033 93.3432 17.5076 96.6216 17.5076H99.6953C105.26 17.5076 111.679 18.3292 116.414 21.8577C118.221 23.2046 120.444 25.5043 121.497 27.6204C122.323 29.2795 122.531 30.365 122.438 32.268C122.371 33.6644 122.254 35.6679 121.105 36.5109C121.105 33.32 121.404 30.9265 119.863 28.0532C117.911 24.4147 117.043 26.2454 114.237 24.3786C112.369 23.1362 110.94 21.1716 108.891 20.3956C103.433 18.3278 89.7495 19.2766 83.5684 19.4709C77.8089 19.6519 71.9511 20.0673 66.2037 20.0673H62.0511C60.0468 20.0673 52.0056 20.0968 50.6708 18.9898L65.0709 18.9362C63.565 16.8403 61.3992 14.4012 59.7155 12.4004C58.9747 11.5199 55.7555 11.6057 54.7318 11.5132C48.6531 10.9651 32.3955 10.362 28.6039 14.1774L29.6559 15.5658L41.8793 17.9834L41.8766 18.309C33.4623 16.9582 26.4731 15.807 18.5288 16.5588C16.2269 16.5588 14.7385 17.8293 12.6306 18.7406C10.427 19.6921 8.49413 20.208 6.12083 20.2482C6.03193 20.657 5.48103 21.6272 5.29381 22.1941C4.38058 24.9669 4.90589 28.3078 5.58071 31.2093C4.65132 30.5097 4.23242 27.7758 4.23242 26.6219V25.0727C4.23242 23.4163 4.57858 20.9612 5.25609 19.4723C6.14238 17.5251 6.67307 17.048 8.45373 16.1769L7.09062 14.8863C7.35058 14.6947 8.46585 13.8129 8.66654 13.7673C8.87936 13.7191 10.8513 13.6909 11.1934 13.699C12.5147 13.7284 14.682 13.4349 15.9764 13.0664C20.0387 11.9125 23.9476 10.3057 28.0422 9.37432C29.5091 9.04062 30.9355 8.73507 32.4171 8.48848C33.9095 8.24056 35.538 8.00603 37.0411 7.87738C42.7953 7.38689 48.579 7.13092 54.3156 8.00067Z" fill="#1B1918"/>
<path fill-rule="evenodd" clip-rule="evenodd" d="M37.2765 34.7928C37.1108 31.153 36.3444 28.1069 33.365 25.6075C30.2967 23.0331 27.2068 22.292 23.0596 22.4595L22.3632 22.4876C19.4606 22.6042 16.4609 23.7058 14.3503 25.6423C12.5993 27.2492 11.1001 29.4349 10.4293 31.6489C9.6764 29.6118 11.8342 26.2923 13.6728 24.455C15.6999 22.4287 18.6793 21.1435 21.5523 20.5954C29.2205 19.3611 33.5738 22.1995 36.3646 25.4989C38.2463 27.7263 39.336 32.1621 37.2765 34.7928Z" fill="#1B1918"/>
<path fill-rule="evenodd" clip-rule="evenodd" d="M114.839 31.756V32.5306C114.839 33.1793 114.737 35.2779 114.361 35.7926L113.953 35.8073C113.953 32.3162 113.747 29.514 111.247 26.8015C109.184 24.5635 105.987 23.1952 102.859 22.9031C99.4367 22.5828 95.3258 23.4512 92.6535 25.5793C90.5671 27.2411 89.1649 30.2631 88.8255 32.8295H88.2988C88.3985 29.971 89.9946 26.4759 92.3073 24.4456C94.62 22.4153 97.753 21.0349 101.811 21.0349C108.061 21.0322 114.839 25.4051 114.839 31.756Z" fill="#1B1918"/>
<path fill-rule="evenodd" clip-rule="evenodd" d="M120.352 31.2669V32.875C120.352 33.6604 120.026 35.0099 119.384 35.432C118.712 35.0099 118.627 34.1951 118.627 33.4111V29.4202C118.627 28.7889 118.717 28.2381 119.436 28.2931C120.133 28.8988 120.352 30.3408 120.352 31.2669Z" fill="#1B1918"/>
<path fill-rule="evenodd" clip-rule="evenodd" d="M6.71685 24.0582V28.4069C6.8246 28.9068 5.57195 29.2539 5.58407 28.3466V24.3557C5.58407 23.3359 6.71685 23.0879 6.71685 24.0582Z" fill="#1B1918"/>
<path fill-rule="evenodd" clip-rule="evenodd" d="M83.4719 35.2324C82.8267 36.3662 78.9152 35.5822 76.8558 35.4268L73.2177 35.1534C71.7172 35.0408 71.1259 34.9577 71.1259 33.7918C71.1259 33.505 71.0276 34.5771 71.3387 32.7317C71.5758 31.3206 72.4971 28.1672 73.7618 25.2712C67.7047 24.782 61.4764 24.8383 56.0725 25.1425C51.5926 25.3945 45.957 26.1463 42.1061 27.2144C41.2279 26.9718 40.8494 25.3945 41.5943 25.2283C47.0561 24.0128 54.5087 23.529 59.786 23.4821C65.4458 23.4325 68.1411 23.3628 74.2898 24.12C74.5242 23.6375 74.7667 23.1712 75.0172 22.7303C79.3907 22.8469 76.9244 20.5365 80.8831 20.8165C80.1288 22.1339 79.4419 23.4486 78.8344 24.7619C82.7796 25.4789 86.4877 26.8405 87.5976 27.6941C84.7704 26.8271 81.6441 26.1999 78.3859 25.763C77.1696 28.5786 76.3291 31.3903 75.9681 34.2166L83.4719 35.2324Z" fill="#1B1918"/>
<path fill-rule="evenodd" clip-rule="evenodd" d="M66.6511 33.3949C66.3131 33.9738 66.0518 34.0516 65.6207 34.2633C65.0133 34.5621 64.1755 34.4777 63.4683 34.467C61.3765 34.4348 59.0207 34.3946 57.4004 34.3692C55.78 34.3437 55.4015 34.597 54.9516 33.9819C54.2028 34.5246 53.1306 34.4308 51.7796 34.5059L48.9928 34.6627C48.1725 34.7082 47.4802 34.7189 47.0748 34.3464C46.6276 33.9363 46.5495 33.6616 46.5077 33.0813C46.4794 32.6806 46.4794 32.6109 46.6693 31.7184C46.8593 30.8258 47.4465 29.089 47.8977 27.8521C49.673 27.3147 52.0908 26.9247 54.0317 26.8161C53.1979 29.0086 52.542 31.1233 52.0961 33.3158L55.1685 33.159C55.5874 30.9317 56.1235 28.821 56.9842 26.5414C57.8974 26.3819 60.6128 26.2184 62.4945 26.3069C61.6244 28.5972 60.9765 30.8875 60.5495 33.1778L66.6511 33.3949Z" fill="#1B1918"/>
<path fill-rule="evenodd" clip-rule="evenodd" d="M108.546 26.0444C109.811 27.1956 110.363 28.4285 110.639 29.2822C110.918 30.1426 111.033 30.885 110.979 31.5136C110.796 33.9553 109.819 35.873 108.064 37.2574C106.383 38.5908 104.193 39.2649 101.507 39.2797C98.3821 39.3092 95.9752 38.6284 94.2928 37.2346C92.8018 36.0071 92.0488 34.3962 92.0488 32.3887C92.0488 31.992 92.0825 31.5953 92.1498 31.2053C92.496 28.9954 93.486 27.2586 95.1266 26.0002C96.8763 24.6748 99.2078 23.9793 102.124 24.0074C105.466 24.0436 107.281 24.8932 108.546 26.0444ZM101.429 25.9479C101.426 26.2026 101.399 26.9048 101.189 27.6432C100.979 28.3843 100.579 29.167 99.8422 29.5703C99.1054 29.9737 98.133 30.0113 97.275 29.9322C96.4196 29.8518 95.6775 29.6508 95.3987 29.5663C95.9509 28.5693 96.8076 27.7075 97.8514 27.075C98.8913 26.4438 100.122 26.0364 101.429 25.9479ZM95.0714 30.2645C95.3623 30.3356 96.1274 30.5419 96.8655 30.8877C97.6076 31.2348 98.3242 31.7173 98.5155 32.3632C98.7067 33.0078 98.335 33.8159 97.8676 34.5048C97.3989 35.1963 96.8291 35.7765 96.6257 35.9735C95.959 35.4442 95.4377 34.7848 95.1104 34.0397C94.7845 33.2986 94.67 32.2654 94.7414 31.5993C94.8141 30.9333 94.9043 30.692 95.0714 30.2645ZM97.3221 36.448C97.6521 36.0245 99.2684 34.0652 101.126 34.0906C102.985 34.1161 104.283 36.07 104.508 36.4399C103.414 37.0135 102.15 37.3472 100.824 37.3472C99.5001 37.3485 98.3 37.0175 97.3221 36.448ZM105.292 35.9682C105.14 35.8034 104.656 35.2512 104.303 34.5637C103.95 33.8776 103.725 33.0507 104.074 32.3351C104.423 31.6194 105.266 31.1075 106.087 30.7564C106.907 30.4053 107.707 30.2163 107.963 30.1613C108.055 30.5982 108.102 30.8488 108.049 31.527C107.997 32.2037 107.681 33.2504 107.206 34.0049C106.726 34.7607 106.072 35.4308 105.292 35.9682ZM107.723 29.376C107.462 29.4538 106.632 29.6869 105.726 29.8035C104.819 29.9201 103.829 29.9201 103.255 29.5476C102.683 29.175 102.453 28.4017 102.368 27.6553C102.283 26.9115 102.345 26.1972 102.372 25.9399C103.634 26.0069 104.776 26.3821 105.697 26.9799C106.623 27.5802 107.33 28.4071 107.723 29.376ZM100.769 37.9436C102.82 37.9436 104.752 37.2185 106.2 36.0486C107.644 34.8813 108.604 33.2691 108.736 31.5229C108.868 29.7767 108.16 28.2262 106.92 27.1152C105.689 26.0109 103.929 25.3435 101.933 25.365C99.9379 25.3864 98.0723 26.0913 96.658 27.2104C95.2384 28.3347 94.2659 29.8772 94.0773 31.602C93.8887 33.3281 94.5285 34.9148 95.73 36.0647C96.9409 37.2226 98.7162 37.9436 100.769 37.9436Z" fill="#1B1918"/>
<path fill-rule="evenodd" clip-rule="evenodd" d="M23.5168 26.3553C23.5141 26.6099 23.4872 27.3121 23.2771 28.0506C23.0669 28.793 22.6669 29.5743 21.9301 29.9777C21.1934 30.3811 20.2209 30.4186 19.3629 30.3395C18.5076 30.2591 17.7654 30.0581 17.4866 29.9737C18.0388 28.9766 18.8955 28.1149 19.9394 27.4823C20.9792 26.8498 22.2103 26.4424 23.5168 26.3553ZM37.5182 35.6733C36.3585 36.8566 35.4022 37.914 33.1286 38.773C31.1957 39.5047 29.3733 39.3855 27.3085 39.3587C25.7945 39.3399 24.8112 38.9606 24.3385 38.2222C25.8268 37.9663 27.1953 37.3364 28.2877 36.4546C29.7316 35.2873 30.692 33.6751 30.824 31.9289C30.956 30.1814 30.2475 28.6322 29.0083 27.5212C27.7772 26.4169 26.0167 25.7495 24.0206 25.771C22.0258 25.7924 20.1603 26.4973 18.746 27.6163C17.3263 28.7407 16.3538 30.2832 16.1652 32.0093C15.9767 33.7354 16.6165 35.3222 17.8179 36.472C18.9817 37.5857 20.6707 38.2946 22.6238 38.3469C21.4183 39.2997 20.0363 39.7795 18.4806 39.7795C16.8751 39.7795 15.5659 39.2273 14.5664 38.1391C13.5603 37.0429 13.0605 35.6116 13.0605 33.8547C13.0605 30.6826 14.1583 28.1712 16.3619 26.3352C18.354 24.664 20.8176 23.8318 23.7606 23.8318C27.6856 23.8318 31.1701 24.0315 32.5938 26.7412C34.0189 29.451 32.6598 32.7813 31.3668 36.7293C33.0195 37.2171 35.0911 36.6435 37.5182 35.6733ZM24.0947 37.6661C24.0354 37.4476 24.0071 37.2091 24.0071 36.9491C23.7795 37.2359 23.5438 37.5012 23.2986 37.7451C23.1707 37.7518 23.0414 37.7545 22.9121 37.7545C21.588 37.7559 20.3879 37.4248 19.41 36.8539C19.74 36.4305 21.355 34.4712 23.2138 34.4966C25.0725 34.5221 26.371 36.476 26.5959 36.8459C25.8322 37.2479 24.9863 37.5307 24.0947 37.6661ZM17.1579 30.6705C17.4502 30.7416 18.2139 30.9479 18.9534 31.2937C19.6942 31.6408 20.4121 32.1232 20.6034 32.7692C20.7947 33.4138 20.4229 34.2219 19.9569 34.9107C19.4881 35.6022 18.9184 36.1812 18.715 36.3795C18.0483 35.8502 17.5256 35.1908 17.1997 34.4457C16.8737 33.7046 16.7592 32.6714 16.8306 32.0053C16.902 31.3393 16.9923 31.098 17.1579 30.6705ZM27.3798 36.3755C27.2276 36.2107 26.7441 35.6585 26.3912 34.971C26.0383 34.2849 25.8134 33.458 26.1622 32.7424C26.5111 32.0268 27.3542 31.5148 28.1745 31.1637C28.9948 30.8126 29.7949 30.6236 30.0508 30.5687C30.1424 31.0056 30.1896 31.2562 30.137 31.9329C30.0845 32.6111 29.7693 33.6564 29.2938 34.4109C28.8143 35.1667 28.1597 35.8368 27.3798 36.3755ZM29.8097 29.7834C29.5484 29.8611 28.7187 30.0943 27.8122 30.2109C26.9057 30.3275 25.9157 30.3275 25.3419 29.9549C24.7695 29.5823 24.5392 28.8091 24.4543 28.0626C24.3694 27.3188 24.4314 26.6045 24.4583 26.3472C25.7204 26.4142 26.8626 26.7895 27.7839 27.3872C28.7106 27.9876 29.4178 28.8144 29.8097 29.7834Z" fill="#1B1918"/>
</g>
</svg>
