<svg width="209" height="34" fill="none" xmlns="http://www.w3.org/2000/svg"><g style="mix-blend-mode:luminosity" clip-path="url(#clip0)" fill="#F05523"><path d="M14.641 15.403h14.644v3.265H14.64v-3.265zm13.843-7.5L15.44.222a1.548 1.548 0 00-1.598 0L.8 7.904c-.496.29-.8.831-.8 1.412v4.277h3.2V10.26l11.44-6.743 11.444 6.743v3.334h3.197V9.316a1.64 1.64 0 00-.798-1.412zM26.085 23.74l-11.444 6.74-11.442-6.74v-3.03H0v3.973c0 .584.304 1.122.8 1.413l13.04 7.686a1.57 1.57 0 001.601 0l13.046-7.686c.494-.29.798-.829.798-1.413V20.71h-3.2v3.029zM50.818 1.298c-2.909 0-5.987 1.634-6.663 5.25h2.974c.614-1.632 1.967-2.428 3.69-2.428 2.09-.02 3.731 1.3 4.019 3.414h-5.252v2.592h5.19c-.347 2.074-1.993 3.37-4.062 3.37-1.765 0-3.258-.9-3.752-2.657h-2.974c.637 3.854 3.732 5.462 6.726 5.462 3.775 0 7.34-2.614 7.34-7.49 0-4.853-3.461-7.533-7.236-7.513zm13.234 10.527c-.187 1.61-.533 2.175-2.258 1.988l-.06 2.258c3.775.543 5.026-.331 5.373-4.143l.7-7.64h3.915v11.849h3.058V1.487h-9.663l-1.066 10.338zM84.28 9.94h5.334V7.2H84.28V4.225h5.702V1.487h-8.797v14.65h8.96v-2.848H84.28V9.941zM106.097 5c.307-1.111.922-1.465 2.072-1.361V1.507c-3.157-.67-4.415.754-4.902 2.572-.392 1.657-.677 2.767-1.438 3.184-.569.293-1.595.273-2.48.273V1.487h-3.056v14.65h3.053v-5.882c.637 0 1.702 0 2.258-.147l3.608 6.029h3.467v-.463l-4.392-6.78c.882-.9 1.376-2.218 1.81-3.895zm5.821-.795h3.836v11.932h2.974V4.205h3.817V1.487h-10.627v2.718zm21.02-2.738c-2.052 0-4.079-.023-6.131 0v14.647h3.075v-4.145h3.056c3.284 0 5.107-2.445 5.107-5.17-.002-2.76-1.764-5.332-5.107-5.332zm0 7.82h-3.118V4.206c1.046 0 2.072-.02 3.118 0 1.355 0 2.176 1.15 2.176 2.511 0 1.404-.866 2.572-2.176 2.572zm16.221-8.033c-3.817 0-7.36 2.617-7.36 7.556 0 4.936 3.461 7.574 7.298 7.574 4.346 0 7.363-3.118 7.363-7.574-.003-4.921-3.549-7.556-7.301-7.556zm-.02 12.265c-2.297 0-4.248-1.504-4.248-4.706 0-3.1 2.01-4.665 4.268-4.665 2.235 0 4.245 1.547 4.245 4.665 0 3.199-2.032 4.706-4.265 4.706zm18.31-6.593h-3.117v-2.7h7.038v-2.74h-10.052v14.65h6.134c3.386 0 5.085-2.136 5.085-4.71-.005-2.532-1.663-4.5-5.088-4.5zm-.017 6.464h-3.1V9.544h3.1c1.393 0 2.109.88 2.109 1.901 0 1.004-.696 1.945-2.109 1.945zm26.382-11.903h-3.058v14.65h3.058V1.487zm-10.235 4.579h-3.076V1.49h-2.993v14.647h6.069c3.019 0 4.781-2.034 5.065-4.398.333-2.805-1.454-5.673-5.065-5.673zm2.136 5.316c-.143 1.384-1.068 2.008-2.646 2.008-.86 0-1.723-.02-2.566-.02V8.83h3.076c1.437 0 2.255 1.235 2.136 2.552zm12.668-9.895v2.718h3.828v11.932h2.976V4.205h3.814V1.487h-10.618zM47.25 25.638c1.021 0 2.103.56 2.335 1.838h-1.049c-.223-.584-.68-.84-1.288-.84-.896 0-1.497.665-1.497 1.645 0 .886.586 1.623 1.488 1.623.629 0 1.142-.302 1.317-.93h1.04c-.217 1.364-1.294 1.934-2.348 1.934-1.33 0-2.588-.915-2.588-2.627.003-1.723 1.26-2.666 2.59-2.643zm7.02 1.018h-2.01v1.047h1.88v.966h-1.88v1.18h2.066v1.004h-3.16v-5.164h3.1v.967h.004zm1.298-.009v-.957h3.744v.957h-1.345v4.206H56.92v-4.206h-1.35zm6.24.656h1.085c1.165 0 1.802.849 1.802 1.763 0 .924-.637 1.787-1.802 1.787h-2.14v-5.164h1.058v1.614h-.003zm0 .975v1.603c.355 0 .722.014 1.085 0 .477 0 .767-.377.759-.812-.009-.428-.29-.788-.759-.788h-1.085v-.003zm11.32-2.603h.39v5.178h-1.086v-2.796l-1.271 1.622h-.138l-1.272-1.622v2.796h-1.085v-5.178h.398l2.032 2.457 2.032-2.457zm3.172 4.32l-.39.858h-1.127v-.147l2.329-5.06h.499l2.314 5.06v.147h-1.12l-.397-.858H76.3zm.355-.929h1.404l-.702-1.703-.702 1.703zm5.615-2.381v4.168h-1.077v-5.164h3.079v.996H82.27zm3.811 3.31l-.389.858h-1.127v-.147l2.328-5.06h.499l2.314 5.06v.147h-1.12l-.397-.858h-2.108zm.352-.929h1.401l-.702-1.703-.699 1.703zm4.374-2.108c-.037-.952.752-1.372 1.626-1.372 1.049 0 1.678.642 1.678 1.461 0 .42-.232.789-.578 1.004.55.26.854.665.854 1.306 0 .944-.708 1.6-1.95 1.6-1.078 0-1.822-.553-1.822-1.735h.976c0 .515.375.82.845.82.527 0 .86-.317.86-.754 0-.414-.347-.736-.86-.736h-.375v-.886h.37c.389 0 .67-.265.67-.598 0-.392-.318-.605-.665-.605-.332 0-.67.156-.67.495h-.96zm5.509 3.909h-.324V25.69h1.085v2.929l2.842-2.951h.341v5.186h-1.077V27.9l-2.867 2.966zm8.844-.014v-2.184h-1.937v2.184h-1.077v-5.164h1.077v1.97h1.937v-1.97h1.085v5.164h-1.085zm5.269.089c-1.35 0-2.574-.93-2.574-2.67 0-1.74 1.252-2.663 2.597-2.663 1.322 0 2.573.929 2.573 2.663 0 1.571-1.062 2.67-2.596 2.67zm.017-1.013c.786 0 1.502-.532 1.502-1.66 0-1.098-.707-1.645-1.496-1.645-.795 0-1.503.553-1.503 1.646 0 1.13.685 1.66 1.497 1.66zm7.431-1.754c.471.198.721.618.721 1.15 0 .907-.591 1.528-1.603 1.528h-2.349v-5.158h2.148c.925 0 1.59.561 1.59 1.528-.003.377-.191.753-.507.952zm-2.157-1.533v1.173h.99c.369 0 .6-.207.606-.552.008-.377-.231-.619-.606-.619h-.99v-.002zm0 2.07v1.18h1.201c.37 0 .587-.221.606-.567a.599.599 0 00-.225-.509c-.124-.089-.268-.103-.434-.103h-1.148zm8.054-1.104h1.099c1.206 0 1.793.693 1.793 1.585 0 .906-.601 1.66-1.793 1.66h-2.162v-5.164h3.543v.967h-2.48v.952zm0 .92v1.358h1.091c.498 0 .744-.33.744-.684 0-.363-.254-.67-.744-.67h-1.091v-.003zm5.499-2.715v1.49h1.085c1.272 0 1.9 1.01 1.785 2-.102.834-.722 1.55-1.785 1.55h-2.139v-5.164h1.054v.124zm.978 2.465h-.975v1.603c.296 0 .6.005.905.005.555 0 .882-.221.933-.707.042-.466-.246-.9-.753-.9h-.11zm3.713 2.575h-1.077v-5.164h1.077v5.164zm1.44-4.206v-.957h3.744v.957h-1.345v4.206h-1.048v-4.206h-1.351zm7.367 4.295c-1.35 0-2.574-.93-2.574-2.67 0-1.74 1.252-2.663 2.596-2.663 1.322 0 2.574.929 2.574 2.663-.003 1.571-1.065 2.67-2.596 2.67zm.014-1.013c.789 0 1.502-.532 1.502-1.66 0-1.098-.707-1.645-1.496-1.645-.795 0-1.503.553-1.503 1.646 0 1.13.688 1.66 1.497 1.66zm7.43-1.754c.47.198.721.618.721 1.15 0 .907-.592 1.528-1.604 1.528h-2.348v-5.158h2.148c.925 0 1.59.561 1.59 1.528-.003.377-.192.753-.507.952zm-2.157-1.533v1.173h.99c.369 0 .6-.207.606-.552.008-.377-.231-.619-.606-.619h-.99v-.002zm0 2.07v1.18h1.201c.369 0 .586-.221.606-.567a.596.596 0 00-.222-.509c-.125-.089-.268-.103-.435-.103h-1.15zm6.789 2.23c-1.353 0-2.574-.93-2.574-2.67 0-1.74 1.252-2.663 2.597-2.663 1.322 0 2.573.929 2.573 2.663 0 1.571-1.063 2.67-2.596 2.67zm.014-1.013c.787 0 1.503-.532 1.503-1.66 0-1.098-.708-1.645-1.497-1.645-.795 0-1.503.553-1.503 1.646.003 1.13.688 1.66 1.497 1.66zm4.518.938h-.324V25.69h1.085v2.929l2.841-2.951h.341v5.186h-1.076v-2.951l-2.867 2.965zm.744-6.757c.037.76.507 1.24 1.28 1.24.803 0 1.243-.486 1.288-1.24a18.962 18.962 0 00-.724-.066c-.057.34-.26.466-.573.466-.332 0-.507-.16-.541-.466l-.73.066zm7.125 2.537v-.957h3.743v.957h-1.344v4.206h-1.049v-4.206h-1.35zm8.285.009h-2.01v1.047h1.881v.966h-1.881v1.18h2.067v1.004h-3.16v-5.164h3.1v.967h.003zm3.615.811l.49-.972.499-.806h1.17v.162l-1.525 2.272 1.7 2.574v.156h-1.136l-.657-.995-.541-.967h-.037l-.555.995-.629.967h-1.15v-.156l1.706-2.574-1.534-2.273v-.16h1.179l.527.848.462.93h.031zm6.729 3.386v-2.184h-1.937v2.184h-1.077v-5.164h1.077v1.97h1.937v-1.97h1.085v5.164h-1.085zm3.301.014h-.324V25.69h1.085v2.929l2.841-2.951h.338v5.186h-1.076V27.9l-2.864 2.966zm6.909-3.046c.31 0 .67.009.873-.095.268-.146.37-.538.505-1.122.175-.641.614-1.144 1.728-.906v.754c-.406-.037-.623.09-.73.48-.152.59-.324 1.056-.637 1.372l1.547 2.39v.162h-1.22l-1.272-2.126c-.194.052-.572.052-.794.052v2.074h-1.077V25.69h1.077v2.131zm5.056 3.046h-.325V25.69h1.086v2.929l2.841-2.951h.341v5.186h-1.077V27.9l-2.866 2.966z"/></g><defs><clipPath id="clip0"><path fill="#fff" d="M0 0h209v34H0z"/></clipPath></defs></svg>