<svg width="77" height="49" fill="none" xmlns="http://www.w3.org/2000/svg"><g style="mix-blend-mode:luminosity" clip-path="url(#clip0)" fill-rule="evenodd" clip-rule="evenodd"><path d="M7.332 19.028V8.679H0v10.353a18.1 18.1 0 005.305 11.843 18.221 18.221 0 0012.881 5.324v.024l.913.005 11.916.033c-2.81-.878-6.371-2.867-9.086-7.328l-2.834-.01h-.885v-.043.014c-3.006 0-5.73-1.226-7.714-3.206a10.909 10.909 0 01-3.164-6.66z" fill="url(#paint0_linear)"/><path d="M76.968 36.065c-11.323-.01-22.842.015-35.68 0-1.252-.047-2.959-.08-4.22-.219a18.394 18.394 0 01-11.371-5.573c-1.21-1.26-2.151-2.681-2.925-4.275a18.057 18.057 0 01-1.807-7.853v-.076c.01-5 2.031-9.514 5.3-12.778A18.105 18.105 0 0138.358.014a17.793 17.793 0 011.945.024 18.076 18.076 0 0111.624 5.253 18.019 18.019 0 015.296 13.236 18.01 18.01 0 01-2.318 8.459h-9.693a11.085 11.085 0 001.525-1.27 10.76 10.76 0 003.111-6.45 11.3 11.3 0 00.005-2.304c-.263-2.515-1.41-4.781-3.116-6.49a10.806 10.806 0 00-6.601-3.124 10.798 10.798 0 00-8.67 3.125 10.742 10.742 0 00-3.097 8.927 10.817 10.817 0 003.097 6.322 10.789 10.789 0 007.107 3.158c15.787.01 25.61-.033 38.4 0l-.005 7.185z" fill="url(#paint1_linear)"/><path d="M.105 42.888c0-1.064.335-1.884 1.004-2.462.67-.582 1.625-.873 2.878-.873a9.5 9.5 0 011.93.206c.665.138 1.172.31 1.51.51v5.935c0 .955-.315 1.66-.945 2.114C5.85 48.771 5 49 3.92 49c-1.195 0-2.099-.143-2.715-.43-.612-.28-.918-.748-.918-1.407 0-.119.038-.21.11-.286a.386.386 0 01.287-.11h.956a.92.92 0 01.74.34c.235.29.694.438 1.382.438.516 0 .889-.1 1.109-.296.22-.195.334-.544.334-1.045v-.3a7.697 7.697 0 01-1.921.262c-.951 0-1.716-.29-2.3-.878-.587-.587-.879-1.388-.879-2.4zm2.218 0c0 1.15.497 1.727 1.487 1.727.41 0 .874-.062 1.39-.19v-3.183c-.367-.095-.822-.143-1.357-.138-1.008-.005-1.52.592-1.52 1.784zm6.682 3.426v-8.397a.375.375 0 01.392-.396h1.434c.115 0 .21.038.282.11a.4.4 0 01.11.286v8.397c0 .115-.038.21-.11.282a.394.394 0 01-.282.11H9.397a.386.386 0 01-.282-.11.385.385 0 01-.11-.282zm4.393-.4c-.665-.616-1-1.523-1-2.72 0-1.198.335-2.104 1-2.72.669-.615 1.625-.92 2.877-.92 1.252 0 2.213.305 2.882.92.67.616 1 1.522 1 2.72 0 1.197-.335 2.104-1 2.72-.664.615-1.625.92-2.882.92-1.252 0-2.208-.31-2.877-.92zm1.625-4.39c-.268.348-.402.902-.402 1.66 0 .759.134 1.312.402 1.665.263.349.683.525 1.252.525.574 0 .994-.176 1.262-.525.268-.353.401-.906.401-1.665 0-.763-.133-1.317-.401-1.66-.268-.349-.688-.52-1.262-.52-.569 0-.99.176-1.252.52zm6.318-3.612c0-.12.039-.215.115-.286a.368.368 0 01.282-.11h1.434c.115 0 .21.038.282.11.072.076.11.172.11.286v1.966c.693-.22 1.314-.325 1.854-.325 1.033 0 1.855.315 2.462.94.612.625.913 1.527.913 2.706 0 2.428-1.338 3.635-4.01 3.635a9.16 9.16 0 01-1.931-.21c-.665-.138-1.171-.31-1.51-.51v-8.202zm2.218 3.445v3.779c.368.1.822.147 1.358.147.602 0 1.032-.162 1.28-.49.254-.33.378-.86.378-1.594 0-.735-.124-1.265-.373-1.599-.244-.33-.66-.496-1.247-.496-.378-.005-.841.081-1.396.253zm6.935 4.886c-.568-.392-.85-.95-.85-1.666 0-.72.282-1.269.85-1.65.564-.387 1.296-.578 2.19-.578h2.122c0-.5-.105-.849-.316-1.045-.205-.195-.54-.296-.994-.296-.597 0-1.013.144-1.252.435a.91.91 0 01-.736.339h-.956a.386.386 0 01-.282-.11.37.37 0 01-.11-.277c0-1.231 1.161-1.842 3.494-1.842 1.018 0 1.835.23 2.452.683.616.453.922 1.159.922 2.113v3.965c0 .115-.038.21-.11.282a.386.386 0 01-.282.11h-1.238a.374.374 0 01-.392-.391v-.197c-.678.487-1.448.726-2.322.716-.894 0-1.626-.196-2.19-.592zm1.367-1.666c0 .234.091.425.268.578.182.152.435.224.765.224.66 0 1.295-.196 1.907-.577V43.8h-1.965c-.3 0-.535.071-.707.22a.7.7 0 00-.268.557zm6.75 1.737v-8.397c0-.12.038-.215.114-.287a.375.375 0 01.282-.11h1.434c.115 0 .21.039.282.11.072.077.11.172.11.287v8.397c0 .115-.038.21-.11.282a.402.402 0 01-.282.11h-1.434a.386.386 0 01-.397-.392zm3.393-3.12c0-1.179.306-2.08.913-2.706.611-.625 1.434-.94 2.466-.94.545 0 1.161.11 1.854.325v-1.966a.375.375 0 01.392-.396h1.43c.119 0 .21.038.286.11a.388.388 0 01.115.286v8.398a.37.37 0 01-.115.281.405.405 0 01-.286.11H47.83a.386.386 0 01-.282-.11.392.392 0 01-.11-.282v-.2a3.651 3.651 0 01-2.227.72c-.951 0-1.725-.314-2.318-.944-.593-.625-.89-1.517-.89-2.686zm2.222 0c0 .725.115 1.255.345 1.588.234.335.611.502 1.137.502.401 0 .913-.191 1.53-.578v-3.35c-.555-.176-1.019-.257-1.396-.257-.588 0-1.004.167-1.248.496-.243.334-.368.869-.368 1.599zm6.806 3.12v-6.236c0-.12.039-.215.115-.286a.374.374 0 01.282-.11h1.434c.115 0 .21.038.282.11a.39.39 0 01.11.281v.396c.435-.31.856-.544 1.262-.691.406-.153.932-.225 1.587-.225.114 0 .215.039.287.115.076.071.11.162.11.272v.964a.356.356 0 01-.11.276.402.402 0 01-.287.105h-.206c-.1 0-.263-.004-.483-.019a8.226 8.226 0 00-.511-.019c-.578 0-1.128.32-1.654.954v4.113a.377.377 0 01-.11.282.394.394 0 01-.282.11h-1.433a.386.386 0 01-.282-.11.385.385 0 01-.11-.282zm6.39-7.949v-.22c0-.228.068-.414.197-.553.129-.138.31-.205.54-.205h.793c.225 0 .407.067.54.2.13.134.197.32.197.554v.22c0 .233-.067.42-.197.553-.129.134-.31.205-.54.205h-.793c-.225 0-.406-.067-.54-.205-.13-.134-.196-.32-.196-.549zm.025 7.95v-6.046c0-.12.038-.21.114-.282a.39.39 0 01.282-.105h1.434c.115 0 .21.039.282.11a.38.38 0 01.11.277v6.05c0 .114-.038.21-.11.281a.394.394 0 01-.282.11h-1.434a.381.381 0 01-.397-.396zm3.207-6.47c.048-.11.148-.168.296-.168h1.229a.94.94 0 01.52.158.856.856 0 01.345.405l1.754 3.994 1.75-3.994a.856.856 0 01.343-.405.94.94 0 01.521-.158h1.243c.148 0 .244.053.292.167a.256.256 0 01.023.148.618.618 0 01-.057.248l-2.777 5.898a.927.927 0 01-.363.405.943.943 0 01-.511.157h-.942a.917.917 0 01-.507-.157.945.945 0 01-.358-.405l-2.772-5.898a.608.608 0 01-.063-.248c0-.052.01-.1.034-.148zm9.836 6.068c-.66-.615-.989-1.512-.989-2.695 0-1.184.33-2.09.994-2.72.665-.63 1.582-.945 2.753-.945 1.18 0 2.103.315 2.758.94.66.625.99 1.527.99 2.7v.378a.391.391 0 01-.397.405h-4.832c.043.492.19.845.449 1.069.263.224.655.334 1.195.334.602 0 1.023-.143 1.257-.43a.926.926 0 01.736-.348h.956c.115 0 .21.038.287.12a.425.425 0 01.114.305c0 1.207-1.17 1.813-3.513 1.803-1.18.005-2.098-.3-2.758-.916zm1.267-3.392h2.983c-.043-1.011-.536-1.517-1.487-1.517-.951 0-1.448.506-1.496 1.517z" fill="url(#paint2_linear)"/></g><defs><linearGradient id="paint0_linear" x1="-4.124" y1="15.085" x2="69.585" y2="52.005" gradientUnits="userSpaceOnUse"><stop stop-color="#4089C3"/><stop offset="1" stop-color="#17ABE1"/></linearGradient><linearGradient id="paint1_linear" x1="3.35" y1=".165" x2="77.059" y2="37.085" gradientUnits="userSpaceOnUse"><stop stop-color="#4089C3"/><stop offset="1" stop-color="#17ABE1"/></linearGradient><linearGradient id="paint2_linear" x1="-7.347" y1="21.52" x2="66.362" y2="58.44" gradientUnits="userSpaceOnUse"><stop stop-color="#4089C3"/><stop offset="1" stop-color="#17ABE1"/></linearGradient><clipPath id="clip0"><path fill="#fff" d="M0 0h77v49H0z"/></clipPath></defs></svg>