<svg width="126" height="40" fill="none" xmlns="http://www.w3.org/2000/svg"><g style="mix-blend-mode:luminosity" clip-path="url(#clip0)"><path fill-rule="evenodd" clip-rule="evenodd" d="M3.406 11.091H.596V7.444h2.81v3.647zm0 20.089H.596V14.103h2.81V31.18zm8.57-16c.144-.112.292-.218.445-.317 1.15-.749 2.486-1.039 3.853-1.039 1.784 0 3.44.527 4.58 1.932 1.216 1.501 1.48 3.69 1.48 5.548v9.876h-2.81v-9.904c0-1.112-.116-2.888-.894-3.76-.618-.691-1.422-.94-2.341-.94-1.09 0-2.184.233-2.945 1.052-.772.831-1.182 1.868-1.372 2.963V31.18h-2.81V14.103h2.815l-.001 1.077zm26.19-.06V7.443h2.811V31.18h-2.77l-.011-.905c-.204.136-.415.26-.632.375-1.115.586-2.355.823-3.614.823-2.082 0-3.828-.789-5.071-2.442-1.321-1.757-1.73-3.972-1.73-6.11v-.293c0-2.187.407-4.459 1.728-6.273 1.235-1.696 2.983-2.53 5.101-2.53 1.287 0 2.537.272 3.642.933.188.113.37.234.546.363zm10.139 8.02v.073c0 1.476.38 2.845 1.358 3.993.871 1.025 1.953 1.515 3.314 1.515a6.18 6.18 0 002.274-.43c.634-.25 1.235-.6 1.705-1.092l.866-.908 1.593 2.259-.543.587c-.676.73-1.516 1.28-2.43 1.683-1.086.478-2.282.653-3.465.653-2.14 0-3.938-.838-5.353-2.399-1.5-1.652-2.13-3.674-2.13-5.861v-.892c0-2.229.6-4.327 2.105-6.038 1.425-1.62 3.264-2.459 5.45-2.459 1.88 0 3.564.596 4.842 1.982 1.323 1.434 1.786 3.284 1.786 5.177v2.156H48.305zm21.321-3.06l4.388-5.977h3.487l-6.145 8.344 6.429 8.733h-3.47l-4.701-6.37-4.687 6.37h-3.471l6.429-8.733-6.145-8.344h3.485l4.401 5.977zm-31.46 6.193v-6.758a5.315 5.315 0 00-1.46-2.114c-.742-.65-1.778-.825-2.742-.825-1.251 0-2.184.454-2.861 1.496-.867 1.332-1.114 3.003-1.114 4.556v.292c0 1.485.224 3.145 1.087 4.404.687 1.004 1.647 1.397 2.86 1.397.96 0 1.947-.172 2.754-.711a4.057 4.057 0 001.476-1.737zm10.404-5.886h8.275c-.077-.975-.378-1.889-1.035-2.656-.72-.84-1.663-1.155-2.762-1.155-1.255 0-2.312.39-3.17 1.302-.696.737-1.096 1.558-1.308 2.51zm66.703-2.74c0-1.981-.386-4.047-1.698-5.62-1.192-1.43-2.836-1.93-4.673-1.93-1.827 0-3.459.499-4.64 1.927-1.304 1.575-1.686 3.644-1.686 5.623v3.28c0 1.985.38 4.072 1.692 5.652 1.189 1.43 2.831 1.928 4.665 1.928 1.828 0 3.47-.493 4.656-1.92 1.31-1.579 1.684-3.677 1.684-5.66v-3.28zm-19.216 13.67h-3.19V7.287h3.19v24.03zm20.461-3.382l3.894 3.72-2.352 2.067-3.809-3.577a8.79 8.79 0 01-1.938.949c-1.085.376-2.232.536-3.38.536-2.768 0-5.229-.884-7.048-2.981-1.881-2.168-2.513-4.938-2.513-7.722v-3.25c0-2.777.629-5.54 2.493-7.71 1.81-2.107 4.269-2.993 7.037-2.993 2.769 0 5.221.893 7.04 2.989 1.881 2.167 2.521 4.929 2.521 7.714v3.25c0 1.493-.186 2.994-.66 4.416a10.06 10.06 0 01-1.285 2.592zm9.131 11.887H84.603V.173h41.046v39.649z" fill="#1C1B17"/></g><defs><clipPath id="clip0"><path fill="#fff" d="M0 0h126v40H0z"/></clipPath></defs></svg>