<svg width="504" height="252" fill="none" xmlns="http://www.w3.org/2000/svg"><path fill-rule="evenodd" clip-rule="evenodd" d="M140.836 251.99c0 61.742 50.051 111.77 111.791 111.77 61.721 0 111.757-50.028 111.757-111.77 0-61.726-50.036-111.791-111.778-111.791-61.719 0-111.77 50.065-111.77 111.791zm272.102-.603c0 90.169-72.588 161.552-160.949 161.552-88.865 0-160.92-72.049-160.92-160.949 0-88.787 71.899-160.772 160.636-160.934V0C112.677.155 0 112.919 0 251.99c0 139.184 112.818 252.004 251.989 252.004C391.174 503.994 504 391.174 504 251.451l-91.062-.064zm-18.731-76.918c35.376 0 64.053-28.683 64.053-64.06 0-35.376-28.677-64.086-64.053-64.086-35.375 0-64.073 28.71-64.073 64.086 0 35.377 28.698 64.06 64.073 64.06z" fill="url(#paint0_linear)" fill-opacity=".7"/><defs><linearGradient id="paint0_linear" x1="357.538" y1="39.307" x2="115.235" y2="445.844" gradientUnits="userSpaceOnUse"><stop stop-color="#AFCB35"/><stop offset="1" stop-color="#52AE30"/></linearGradient></defs></svg>