<svg width="120" height="57" fill="none" xmlns="http://www.w3.org/2000/svg"><g style="mix-blend-mode:luminosity" clip-path="url(#clip0)" fill-rule="evenodd" clip-rule="evenodd"><path d="M29.476 18.014h3.35L37.05 30.82l4.247-12.805h3.34l3.041 18.356h-3.332l-1.938-11.594-3.84 11.594h-3.05l-3.825-11.594-1.976 11.594h-3.37l3.13-18.356zm21.03 0h9.907v3.426h-6.47v3.297h6.47v3.374h-6.47v4.832h6.47v3.426h-9.908V18.014zm13.09 18.357V18.014h9.505v3.375h-6.067v3.553h.758c1.537 0 2.793.17 3.766.512.977.34 1.79.984 2.438 1.925.65.946.973 2.062.973 3.354 0 1.278-.244 2.3-.728 3.06-.489.762-1.159 1.38-2.01 1.86-.854.478-2.034.717-3.542.717h-5.092v.001zm3.438-8.309v4.985h.872c1.588 0 2.595-.21 3.02-.626.421-.413.633-.976.633-1.683 0-1.785-1.268-2.676-3.804-2.676h-.72zm10.99-10.048h9.908v3.426h-6.47v3.297h6.47v3.374h-6.47v4.832h6.47v3.426h-9.908V18.014zM102.9 36.371l-5.034-13.456-5.109 13.456h-3.665l7.01-18.356h3.504l6.988 18.356H102.9zm5.754 0V18.014h3.437v6.928h.755c1.444 0 2.649.17 3.61.507.961.336 1.794.976 2.495 1.918.703.946 1.053 2.083 1.053 3.413 0 1.257-.299 2.322-.902 3.195-.603.873-1.297 1.491-2.094 1.854-.791.362-1.883.54-3.264.54h-5.09v.002zm3.437-8.309v4.985h.872c1.442 0 2.405-.178 2.894-.536.489-.358.733-.972.733-1.837 0-1.742-1.26-2.612-3.778-2.612h-.721z" fill="#010005"/><path d="M17.591 41.406L15.17 43.73c-1.646-1.755-3.496-2.633-5.556-2.633-1.735 0-3.2.6-4.39 1.798-1.192 1.197-1.786 2.672-1.786 4.427 0 1.223.266 2.309.792 3.255a5.706 5.706 0 002.233 2.237c.965.541 2.035.81 3.214.81 1.002 0 1.92-.188 2.75-.566.834-.38 1.75-1.07 2.742-2.067l2.346 2.48c-1.339 1.325-2.607 2.246-3.8 2.756-1.191.516-2.557.771-4.085.771-2.822 0-5.135-.904-6.934-2.714C.897 52.48 0 50.157 0 47.332c0-1.832.408-3.455 1.23-4.879.816-1.423 1.988-2.565 3.517-3.43a9.833 9.833 0 014.933-1.3c1.495 0 2.937.32 4.327.96a10.37 10.37 0 013.584 2.723zm16.248-3.222v18.355H30.4v-11.49L23.565 56.54h-2.97V38.184h3.437V50.05l6.942-11.867h2.865zm4.12 18.356V38.184h9.503v3.375h-6.066v3.553h.758c1.537 0 2.792.171 3.765.512.978.34 1.79.984 2.439 1.925.65.947.973 2.062.973 3.354 0 1.278-.245 2.3-.729 3.06-.488.763-1.158 1.38-2.009 1.861-.855.477-2.035.716-3.542.716h-5.093zm3.437-8.309v4.986h.872c1.588 0 2.595-.209 3.02-.626.42-.413.632-.976.632-1.683 0-1.785-1.268-2.677-3.804-2.677h-.72zm24.183-10.047v18.355h-3.437v-11.49L55.305 56.54h-2.97V38.184h3.437V50.05l6.942-11.867h2.865zm4.12 0h3.67c1.983 0 3.412.183 4.287.553a4.39 4.39 0 012.077 1.799c.506.826.758 1.82.758 2.978 0 1.283-.333 2.348-.999 3.196-.662.847-1.563 1.44-2.704 1.772-.67.192-1.887.286-3.653.286v7.772h-3.437V38.184zm3.437 7.184h1.108c.872 0 1.474-.064 1.815-.188.342-.128.606-.332.804-.622.194-.29.291-.64.291-1.053 0-.712-.274-1.231-.821-1.555-.396-.242-1.137-.366-2.216-.366h-.982v3.784h.001zm23.961-7.184v18.355h-3.438v-11.49L86.823 56.54h-2.97V38.184h3.437V50.05l6.942-11.867h2.865z" fill="#3C6317"/><path d="M5.944 33.8c.144 1.965.943 3.233 2.363 3.504.838.16 2.76.338 2.79-.018.137-1.619-1.217-1.065-1.972-1.5-.855-.495-1.061-1.705-1.038-2.656.006-.253.058-.846.661-.87.864-.038 4.082-1.131 6.227-3.772 1.043-1.285 2.75-3.22 1.802-4.604-.623-.91-3.172.642-3.623 1.466-.504.92-.27.57-1.08 1.968-1.687 2.907-2.368 3.48-5.147 4.515-1.233.46-1.022 1.438-.983 1.967z" fill="#EF7C00"/><path d="M26.566 11.736c.132.517.566 1.06 1.175 1.371.493-.354.794-.774 1.016-1.359-.523-.355-1.602-.393-2.19-.012z" fill="#EE7600"/><path d="M25.506 7.702c-.024-.193.048-.373.396-.28.17.046.322.137.452.254.417.378.602 1.026.416 1.309-.256.31-.794.742-.916 1.11-.55 1.174 1.77 1.791 1.77.31 0-.37-.794-.494-.794-.803.672.247 1.16.247 1.832 0 0 .309-.794.432-.794.803 0 1.482 2.28.809 1.67-.302-.276-.419-.58-.624-.815-1.118-.245-.68-.061-1.358.841-1.553.3-.064.501.071.47.282-.219.304-.58.592-.946.963-.032.05-.04.17 0 .247.235.461.461.771.916.865.367-.309.611-.741.855-1.729.245 2.162-1.892 3.643-2.05 4.403-.126.732.645.167.23 1.587 1.195-.354 3.348-3.063 2.587-5.575-.185-.615.015-1.793-.102-2.138-1.165-3.608-7.182-3.636-7.686-.005-.281 2.028-.932 1.91-2.585 2.775-4.855 2.54-7.973 7.128-12.459 10.008-2.301 1.478-6.946 2.226-8.2 3.04 2.55 2.275 4.74.31 5.296.198-.087.338-.762 1.144-.85 1.81-.358 2.701.703 3.591-.318 5.04-.79 1.121-3.583 1.087-3.933 4.511-.157 1.54.067 3.794.495 5.05.207.608 3.404.62 3.56.005.21-2.225-1.024-1.325-1.255-2.825-.21-1.362-.094-1.997.622-2.862.869-1.05 2.405-1.85 3.647-2.46 3.791-1.86 3.242-4.007 4.64-5.745 1.277-1.585 4.442-1.75 6.099-2.312-3.489-4.44-3.61-4.563 1.151-7.898-3.907 4.075-3.652 4.028 0 7.903l-1.064 2.305c-.405 1.084 1.939 2.849 2.748 1.677.583-.843.733-1.423.81-2.515.117-1.64-.923-2.542-1.256-3.697-.142-.487-.038-.955.35-1.227.888-.63 2.298-1.7 2.737-2.533.256-.489.474-1.505.437-2.283-.06-1.296-.977-2.1-1.22-4.26.672 1.605 1.743 3.702 2.93 4.013-.55-1.482.246-.942.123-1.605-.188-1.015-2.137-2.409-1.77-4.385.183.742.295.937.732 1.544.51-.07.885-.343 1.083-.7.016-.042.043-.172-.011-.243-.247-.325-.81-.476-.871-.959z" fill="#EF7C00"/><path d="M23.993 6.125c-.133-.283-.421-2.344-.075-4.015C24.244.876 24.944.355 25.598 0c-.622.392-.893.794-.991 1.01.512-.327.844-.352 1.245-.291-1.006.021-1.037.486-1.105.63-.264 1.037.78 1.921 1.386 2.726-.842.402-1.774 1-2.14 2.05zm3.203 8.418c-.06-.062-.351.027-.366.247-.17 2.669-1.014 4.075-2.93 5.557-.49 1.111 1.247 1.238 2.357.938 1.183-.32 2.36-.836 2.525-1.432.27-.976.32-1.574.733-1.852l.122 3.088c0 1.605 2.198.618 2.198-.124l-.122-2.964c-.244-1.853-1.831-1.729-4.03-.618-.16-.946-.324-1.892-.487-2.84zm4.329-8.207c.133-.282.297-2.555-.048-4.226C31.15.876 30.45.355 29.796 0c.623.392.893.794.992 1.01-.513-.327-.844-.352-1.246-.291 1.007.021 1.037.486 1.105.63.265 1.037-.779 1.921-1.385 2.726.841.402 1.897 1.212 2.263 2.261z" fill="#EF7C00"/></g><defs><clipPath id="clip0"><path fill="#fff" d="M0 0h120v57H0z"/></clipPath></defs></svg>