<svg width="85" height="85" fill="none" xmlns="http://www.w3.org/2000/svg"><path d="M79.046 0H5.955A5.964 5.964 0 000 5.954v73.088a5.96 5.96 0 005.955 5.954h73.09A5.96 5.96 0 0085 79.042V5.954A5.96 5.96 0 0079.046 0zm2.553 79.041a2.554 2.554 0 01-2.553 2.553H5.955A2.554 2.554 0 013.4 79.042V5.954a2.554 2.554 0 012.554-2.553h73.09A2.554 2.554 0 0181.6 5.954v73.088z" fill="#E33059"/><path fill-rule="evenodd" clip-rule="evenodd" d="M69.621 15.374h-4.258l-3.191 4.078-3.187-4.078h-4.258l5.316 6.802-5.316 6.807h4.258l3.187-4.078 3.191 4.078h4.258l-5.32-6.807 5.32-6.802z" fill="#732B90"/><path d="M63.893 42.493a1.722 1.722 0 11-3.444 0 1.722 1.722 0 013.444 0z" fill="#FEBE23"/><path fill-rule="evenodd" clip-rule="evenodd" d="M62.17 39.067a3.422 3.422 0 100 6.845 3.421 3.421 0 003.424-3.423 3.419 3.419 0 00-3.423-3.422zm0 5.684a2.259 2.259 0 01-2.257-2.262 2.259 2.259 0 114.52 0 2.26 2.26 0 01-2.262 2.262zM68.8 56H55.544v3.423h4.892v10.186h3.423V59.423h4.94V56zM28.647 15.374H15.393v3.423h4.887v10.186h3.423V18.797h4.944v-3.423zM16.129 35.687v13.61h3.427V39.11h4.926v10.186h3.423V35.687H16.13z" fill="#732B90"/><path d="M23.741 62.802a1.722 1.722 0 11-3.444 0 1.722 1.722 0 013.444 0z" fill="#E33059"/><path fill-rule="evenodd" clip-rule="evenodd" d="M22.018 59.38a3.422 3.422 0 100 6.845 3.421 3.421 0 100-6.845zm0 5.684a2.262 2.262 0 010-4.523 2.259 2.259 0 012.258 2.261 2.259 2.259 0 01-2.258 2.262zm25.906-46.267v-3.423H36.268v13.61h11.656V25.56H39.69v-1.67h4.803v-3.423H39.69v-1.67h8.234zm-5.83 16.582a7.11 7.11 0 00-7.112 7.115 7.11 7.11 0 007.112 7.11 7.114 7.114 0 100-14.225zm.008 10.799a3.693 3.693 0 110-7.386 3.693 3.693 0 010 7.386zM43.992 56h-8.04v13.61h3.422v-5.077h4.614a4.262 4.262 0 004.245-4.267A4.253 4.253 0 0043.992 56zm-.013 5.106c-.004 0-.004 0 0 0h-4.6v-1.683h4.617v-.005a.843.843 0 01-.017 1.688z" fill="#732B90"/></svg>