<svg width="180" height="22" fill="none" xmlns="http://www.w3.org/2000/svg"><g style="mix-blend-mode:luminosity" clip-path="url(#clip0)"><path d="M2.157 4.4a2.17 2.17 0 002.158-2.182A2.17 2.17 0 002.157.037C.966.037 0 1.013 0 2.219 0 3.424.966 4.4 2.157 4.4zm47.518-.001c1.192 0 2.158-.977 2.158-2.182S50.867.035 49.675.035c-1.191 0-2.157.977-2.157 2.182s.965 2.182 2.157 2.182zm86.389 0c1.191 0 2.157-.977 2.157-2.182s-.966-2.182-2.157-2.182c-1.192 0-2.158.977-2.158 2.182s.966 2.182 2.158 2.182zM97.189 21.874c1.191 0 2.157-.977 2.157-2.182s-.966-2.181-2.157-2.181c-1.192 0-2.158.976-2.158 2.181s.966 2.182 2.158 2.182zm-47.514 0c1.192 0 2.158-.977 2.158-2.182s-.966-2.181-2.158-2.181c-1.191 0-2.157.976-2.157 2.181s.965 2.182 2.157 2.182zm-28.08 0c1.192 0 2.157-.977 2.157-2.182s-.965-2.181-2.157-2.181c-1.192 0-2.157.976-2.157 2.181s.965 2.182 2.157 2.182zM41.032 4.399c1.192 0 2.158-.977 2.158-2.182S42.224.035 41.033.035c-1.192 0-2.158.977-2.158 2.182s.966 2.182 2.157 2.182z" fill="#EE2439"/><path d="M21.429 13.091c-6.397 0-12.745-3.046-20.59-9.139L3.474.488c14.192 11.02 21.65 11.02 36.27-.021l2.585 3.5c-8.058 6.085-14.503 9.124-20.9 9.124zm69.28-1.917h-4.322c0-6.58-5.817-6.768-6.48-6.768h-30.23V.035h30.239c3.729 0 10.794 2.328 10.794 11.14z" fill="#EE2439"/><path d="M90.709 11.174h-4.322c0-6.58-5.817-6.768-6.48-6.768h-30.23V.035h30.239c3.729 0 10.794 2.328 10.794 11.14z" fill="#EE2439"/><path d="M79.908 21.875H49.676v-4.371h30.239c1.075-.014 6.479-.39 6.479-6.553h4.322c-.007 8.644-7.072 10.924-10.808 10.924zm51.834 0H97.188v-4.371h34.554c.972-.028 2.157-.425 2.157-2.182 0-1.973-1.509-2.182-2.157-2.182h-30.239c-2.606 0-6.48-1.743-6.48-6.552 0-4.81 3.874-6.553 6.48-6.553h34.554v4.37h-34.554c-.972.029-2.158.426-2.158 2.183 0 1.972 1.51 2.181 2.158 2.181h30.239c2.605 0 6.479 1.743 6.479 6.553s-3.874 6.553-6.479 6.553z" fill="#EE2439"/><path d="M143.501.125l1.386 2.015 1.392-2.015h.703c.021 0 .034.007.034.028.007.021.007.042-.006.056l-1.786 2.565v1.632h-.765V2.767L142.674.202c-.014-.014-.014-.035-.014-.056.007-.02.028-.027.048-.027h.793v.006zm7.81-.125c.337 0 .634.063.889.181.262.126.482.286.662.495.179.21.317.446.413.725a2.755 2.755 0 010 1.729 2.034 2.034 0 01-.413.725c-.18.209-.4.376-.662.495-.255.125-.552.181-.889.181-.338 0-.634-.063-.896-.181a2.017 2.017 0 01-.655-.495 2.2 2.2 0 01-.407-.725 2.752 2.752 0 010-1.729c.09-.272.228-.516.407-.725a1.86 1.86 0 01.655-.495c.262-.118.558-.181.896-.181zm0 .662a1.23 1.23 0 00-.572.126 1.246 1.246 0 00-.421.341c-.11.14-.193.314-.255.51a2.217 2.217 0 00-.083.62c0 .223.028.425.083.62.062.188.145.362.255.509.11.14.255.258.421.341.165.084.358.126.572.126.213 0 .406-.042.572-.126.165-.083.303-.202.413-.341.111-.147.2-.314.255-.509.062-.195.09-.404.09-.62 0-.224-.028-.426-.09-.62a1.395 1.395 0 00-.255-.51 1.164 1.164 0 00-.413-.341 1.261 1.261 0 00-.572-.126zm5.817-.537v2.712c0 .133.021.265.062.384.042.125.111.23.2.32.09.09.214.16.359.216.144.056.317.077.523.077.207 0 .38-.028.524-.077a.893.893 0 00.352-.216.827.827 0 00.2-.32c.041-.126.069-.251.069-.384V.125h.758v2.76c0 .224-.035.433-.103.628a1.32 1.32 0 01-.324.523 1.595 1.595 0 01-.586.363c-.235.09-.531.132-.883.132-.351 0-.648-.042-.889-.132a1.626 1.626 0 01-.593-.363 1.34 1.34 0 01-.324-.523 2.13 2.13 0 01-.096-.627V.126h.751zm8.265 0c.248 0 .462.035.641.112.179.07.331.167.448.293.117.125.207.279.262.453.055.174.083.355.083.558 0 .32-.069.592-.2.808-.131.21-.317.37-.545.474l1.062 1.513c.006.014.013.028.006.049-.006.014-.013.028-.034.028h-.786l-.972-1.457h-1.296v1.457h-.751V.125h2.082zm-1.331 2.245h1.227c.235 0 .421-.07.566-.216.151-.14.22-.342.22-.6a.878.878 0 00-.2-.592c-.131-.153-.331-.23-.592-.23h-1.227V2.37h.006zm-19.63 6.49c.338 0 .627.056.875.174.256.112.469.272.635.467.165.195.296.425.379.683.089.258.131.53.131.816 0 .286-.042.558-.131.822a1.977 1.977 0 01-.379.677 1.837 1.837 0 01-.635.474 2.131 2.131 0 01-.875.174h-1.827v-4.28h1.827V8.86zm-1.061 3.653h1.013c.22 0 .413-.042.579-.119.172-.084.31-.188.42-.328.111-.139.193-.3.248-.48.056-.182.083-.377.083-.586 0-.21-.027-.404-.083-.586a1.429 1.429 0 00-.248-.48 1.08 1.08 0 00-.42-.321 1.27 1.27 0 00-.579-.126h-1.013v3.026zm6.851-3.653v4.28h-.765V8.86h.765zm7.093 1.889c.027.181.034.355.034.523 0 .286-.041.55-.124.794a1.61 1.61 0 01-.358.635 1.725 1.725 0 01-.614.418c-.241.098-.53.146-.861.146-.372 0-.696-.062-.965-.18a2.037 2.037 0 01-.676-.489 2.099 2.099 0 01-.4-.718 2.68 2.68 0 01-.131-.843 2.4 2.4 0 01.173-.934 2.13 2.13 0 011.178-1.199 2.52 2.52 0 011.765-.014c.29.097.538.244.744.439l-.42.488a1.506 1.506 0 00-.551-.32 1.82 1.82 0 00-.628-.12c-.22 0-.42.043-.606.126a1.415 1.415 0 00-.476.335 1.51 1.51 0 00-.317.523c-.076.202-.11.432-.11.676 0 .216.027.425.089.62.062.188.152.363.269.509.124.14.269.258.448.342.179.083.386.125.621.125.399 0 .71-.118.923-.355.221-.237.324-.565.324-.983h-1.351v-.537h2.02v-.007zm3.791-1.89v4.281h-.765V8.86h.765zm6.658 0v.621h-1.495v3.667h-.765V9.48h-1.503v-.62h3.763zm4.467 0l1.813 4.204c.007.021.007.042 0 .056a.047.047 0 01-.042.028h-.703l-.296-.704h-2.247l-.276.704h-.703c-.027 0-.041-.007-.048-.028-.007-.014 0-.035.007-.056l1.744-4.203h.751zm-1.268 3.054h1.819l-.923-2.238-.896 2.238zm6.665-3.053v3.667h2.371v.62h-3.129v-4.28h.758V8.86zm-34.664 12.045c.221.133.455.237.704.321.248.084.53.126.847.126.311 0 .559-.05.745-.154a.51.51 0 00.276-.474.492.492 0 00-.076-.258.647.647 0 00-.248-.209 2.291 2.291 0 00-.386-.146 24.064 24.064 0 00-.469-.126c-.166-.041-.331-.097-.503-.153a2.224 2.224 0 01-.462-.237 1.223 1.223 0 01-.365-.37 1.007 1.007 0 01-.125-.522c0-.216.042-.398.125-.551.089-.153.206-.279.358-.376.152-.098.317-.168.51-.216.193-.042.4-.07.613-.07.311 0 .607.042.89.125.282.077.53.175.737.286l-.22.572a3.85 3.85 0 00-.648-.265 2.436 2.436 0 00-.71-.105c-.124 0-.242.014-.352.035-.11.028-.207.063-.296.112a.622.622 0 00-.214.188.429.429 0 00-.076.265c0 .097.028.18.076.25.055.07.131.133.221.189.117.07.248.125.399.174.152.042.304.09.462.126.159.041.317.083.476.132.158.049.303.112.441.188.193.105.331.237.421.384.089.153.137.334.137.557 0 .223-.041.412-.131.572a1.165 1.165 0 01-.372.39 1.6 1.6 0 01-.544.223 2.973 2.973 0 01-.683.077 3.18 3.18 0 01-.972-.14 2.908 2.908 0 01-.779-.376l.193-.544zm9.609-3.31v.62h-1.496v3.666h-.765v-3.666h-1.502v-.62h3.763zm4.653-.12c.338 0 .627.064.889.182.262.125.482.286.662.495.179.21.317.446.413.725a2.755 2.755 0 010 1.729 2.033 2.033 0 01-.413.725c-.18.209-.4.376-.662.495-.255.125-.551.18-.889.18-.338 0-.634-.062-.896-.18a2.016 2.016 0 01-.655-.495 2.2 2.2 0 01-.407-.725 2.751 2.751 0 010-1.729c.09-.272.228-.516.407-.725a1.86 1.86 0 01.655-.495 2.04 2.04 0 01.896-.181zm0 .656a1.234 1.234 0 00-.993.467 1.61 1.61 0 00-.255.509 2.217 2.217 0 00-.083.62c0 .224.028.426.083.62.062.189.145.363.255.51.111.14.255.258.421.341.165.084.358.126.572.126.213 0 .406-.042.572-.126.165-.083.303-.202.413-.341.111-.147.2-.314.256-.51a2.04 2.04 0 00.089-.62c0-.216-.027-.425-.089-.62a1.413 1.413 0 00-.256-.509 1.163 1.163 0 00-.413-.341 1.36 1.36 0 00-.572-.126zm7.175-.537c.248 0 .462.035.641.112.18.07.331.167.448.293.118.125.207.279.262.453.055.174.083.355.083.557 0 .321-.069.593-.2.809a1.25 1.25 0 01-.544.474l1.061 1.513c.007.014.007.028.007.049-.007.014-.014.027-.035.027h-.785l-.972-1.457h-1.296v1.457h-.751v-4.28h2.081v-.007zm-1.33 2.252h1.227c.234 0 .42-.07.565-.216.152-.14.221-.342.221-.6a.878.878 0 00-.2-.592c-.131-.154-.331-.23-.593-.23h-1.227v1.638h.007zm5.983-2.252l1.385 2.015 1.393-2.015h.703c.021 0 .034.007.034.028.007.021.007.042-.007.056l-1.785 2.565v1.631h-.765v-1.63l-1.785-2.566c-.014-.014-.014-.035-.014-.056.007-.02.028-.028.048-.028h.793z" fill="#010101"/></g><defs><clipPath id="clip0"><path fill="#fff" d="M0 0h180v22H0z"/></clipPath></defs></svg>