<svg width="78" height="77" fill="none" xmlns="http://www.w3.org/2000/svg"><g opacity=".8"><path d="M78 0v77H0V0h78z" fill="#fff"/><path d="M42.157 1.296c2.496.33 4.934.561 7.382 1.21 4.371 1.14 8.616 3.308 12.239 5.968 3.662 2.69 6.722 6.123 9.199 9.905 6.75 10.293 7.635 24.107 2.661 35.308-2.554 5.746-6.692 10.796-11.675 14.617-7.936 6.084-18.242 8.31-28.063 7.023-5.226-.687-10.393-2.583-14.784-5.485-3.75-2.477-7.178-5.466-9.85-9.103-6.974-9.48-9.189-22.2-5.672-33.47 1.515-4.846 4.099-9.402 7.402-13.252 3.516-4.102 8.081-7.4 12.996-9.645 1.069-.483 2.205-.822 3.303-1.228 3.642-1.325 7.586-1.886 11.462-1.886 1.117 0 2.292-.107 3.4.038z" fill="#070605" fill-opacity=".9"/><path d="M38.466 3.192c.136.59.34 1.77.816 2.167.272.222.7.155 1.03.155h2.525c-.107-.735-.476-1.393-.583-2.128 1.312 0 2.604.222 3.886.483.379.078 1.098.097 1.389.378.505.483-.058 1.528.301 2.118.185.3.622.368.942.445.865.222 1.739.522 2.623.638-.058-.696-.03-1.45-.194-2.128 1.263.107 2.661.92 3.788 1.47.34.165.962.349 1.156.687.33.562-.34 1.47-.233 2.08.058.339.466.494.728.648.768.455 1.574 1.026 2.429 1.297a7.246 7.246 0 01.388-2.032c1.166.493 2.264 1.577 3.206 2.4.31.27.806.57.952.986.242.687-.787 1.344-.729 2.031.03.348.427.639.66.87.593.59 1.157 1.258 1.846 1.742.185-.648.593-1.19.777-1.838.486.145.758.58 1.06.967.553.736 1.116 1.47 1.631 2.225.214.31.602.755.563 1.161-.068.745-1.253 1.084-1.282 1.838-.01.27.224.551.36.774.31.513.602 1.025.893 1.548.107.193.272.56.554.522.214-.029.369-.28.505-.426.301-.328.554-.677.952-.87.777 1.635 1.535 3.357 1.943 5.127-.505.241-1.593.744-1.826 1.277-.117.28.067.677.135.948.214.802.506 1.596.622 2.418.66-.31 1.224-.9 1.943-1.064.233 1.809.437 3.598.583 5.417-.593.135-1.778.338-2.176.813-.224.27-.156.696-.156 1.025 0 .851-.106 1.78.098 2.612.64-.3 1.34-.561 2.04-.678 0 1.82-.515 3.541-.778 5.32-.777.146-1.641.185-2.428.194-.175 1.21-.71 2.37-.874 3.58l2.137-.097c-.185 1.248-.923 2.553-1.477 3.676-.175.348-.35.948-.69 1.16-.602.368-1.515-.425-2.175-.212-.311.096-.466.541-.622.793-.437.725-1 1.5-1.243 2.322a7.76 7.76 0 012.04.386c-.544 1.142-1.496 2.158-2.322 3.096-.301.338-.631.89-1.078 1.045-.69.241-1.35-.784-2.04-.726-.35.03-.641.426-.874.658-.593.59-1.263 1.151-1.749 1.838.641.184 1.273.532 1.846.87v.194c-.942.706-1.855 1.431-2.817 2.118-.398.28-.874.716-1.36.813-.806.174-1.234-1.074-1.943-1.238-.272-.058-.553.155-.777.28-.553.32-1.107.629-1.651.958-.194.116-.563.28-.525.561.03.213.272.377.428.503.33.29.66.551.874.938-1.651.774-3.36 1.529-5.148 1.935-.243-.503-.748-1.587-1.282-1.819-.311-.135-.748.097-1.05.184-.757.223-1.554.465-2.33.57.29.678.893 1.21 1.068 1.936-1.73.415-3.662.541-5.44.58-.126-.532-.34-1.809-.816-2.128-.291-.194-.796-.097-1.127-.097h-2.525c.31.658.612 1.403.68 2.128l-2.623-.329-2.817-.541c0-.494-.029-.958-.077-1.451-.02-.242.019-.532-.117-.745-.194-.3-.65-.348-.971-.426-.806-.203-1.652-.377-2.429-.667 0 .716.04 1.412.097 2.128-1.243-.107-2.583-.88-3.69-1.432-.37-.184-1.03-.377-1.264-.735-.359-.58.37-1.451.204-2.09-.097-.357-.495-.512-.786-.686-.739-.436-1.506-.997-2.332-1.258a7.669 7.669 0 01-.388 2.032c-1.127-.474-2.195-1.51-3.108-2.303-.33-.29-.904-.638-1.03-1.083-.194-.677.796-1.335.777-2.002-.01-.3-.379-.571-.563-.774-.612-.648-1.273-1.355-2.001-1.867-.175.425-.38.851-.612 1.257-.078.145-.185.368-.38.397-.34.048-.689-.561-.864-.784-.728-.928-1.71-1.992-2.156-3.095-.35-.861 1.136-1.325 1.165-2.128.01-.339-.281-.687-.437-.968-.378-.657-.835-1.315-1.097-2.031-.602.426-.981 1.141-1.652 1.451-.621-1.16-1.107-2.428-1.525-3.676-.116-.348-.427-.967-.29-1.335.271-.696 1.67-.764 1.738-1.567.02-.32-.156-.667-.243-.967-.214-.716-.495-1.48-.554-2.225-.66.31-1.224.9-1.942 1.064-.34-1.78-.506-3.608-.583-5.417.592-.136 1.777-.339 2.176-.813.223-.27.155-.696.155-1.025v-2.515c-.767.116-1.457.512-2.234.58.243-.996.233-2.08.398-3.095.126-.774.37-1.538.476-2.322.495 0 .962-.029 1.457-.077.243-.02.534.02.748-.116.301-.194.34-.648.427-.968.214-.803.37-1.644.661-2.418l-2.137.097c.107-1.267.923-2.65 1.476-3.773.166-.338.35-.957.69-1.151.564-.329 1.477.339 2.089.232.34-.058.495-.464.65-.725.457-.764 1.03-1.567 1.302-2.419-.69-.01-1.35-.26-2.04-.29.126-.493.466-.851.758-1.257a27.442 27.442 0 011.651-2.032c.272-.31.573-.803.99-.948.69-.242 1.351.784 2.04.726.35-.03.642-.426.875-.658.593-.59 1.263-1.151 1.748-1.838-.64-.184-1.214-.561-1.845-.774.136-.445.515-.696.874-.987.748-.6 1.535-1.15 2.331-1.692.311-.213.758-.6 1.166-.561.748.067 1.098 1.247 1.846 1.276.271.01.553-.222.777-.358.514-.31 1.039-.6 1.554-.9.184-.106.563-.28.524-.55-.029-.213-.281-.368-.427-.504-.33-.3-.68-.55-.874-.948a41.86 41.86 0 013.4-1.412c.417-.155 1.087-.474 1.544-.387.758.136.816 1.384 1.486 1.683.31.145.748-.077 1.05-.174.747-.232 1.553-.474 2.33-.58-.31-.658-.903-1.219-1.068-1.935 1.826-.126 3.613-.483 5.45-.56z" fill="#fff"/><path d="M8.354 30.084c.185-.696 1-1.306 1.525-1.78 1.04-.928 2.001-1.944 2.992-2.911 2.865-2.777 5.566-5.727 8.48-8.465a78.463 78.463 0 003.244-3.23c.437-.465 1.078-.823 1.34-1.413.7.049 1.234.764 1.681 1.258.923 1.025 1.962 1.934 2.943 2.902.37.358 1.137.957 1.05 1.528-.059.329-.35.503-.564.726-.486.493-.99.977-1.476 1.47a273.464 273.464 0 01-3.76 3.744c-.738.715-1.65 1.412-2.243 2.253-.175.242-.136.532-.175.813-.068.551-.136 1.093-.175 1.645a55.872 55.872 0 01-.389 3.579c-.077.58-.272 1.15-.281 1.74-.01.804-.01 1.636-.204 2.42-.059.212-.04.54-.185.715-.194.242-.7.164-.971.155-.884-.039-1.855-.28-2.72-.494-2.652-.667-5.129-2.215-7.188-3.966-1-.841-1.875-1.925-2.924-2.689zm54.785-8.222c-.437.077-1.253-.01-1.448.503-.145.387.253.832-.068 1.19-.34.377-1.03.048-1.301.464-.204.329.116.677.048 1.016-.087.454-1.049.464-1.418.493.049.358.272 1.074-.058 1.354-.32.28-.845.107-1.117.503-.214.32-.02.687-.117 1.026-.136.474-.942.396-1.33.396 0 .368.194 1.19-.01 1.49-.224.338-.913.252-1.253.252l.097 1.547c-.37.068-1.03 0-1.302.261-.32.31-.02.803-.107 1.17-.107.426-.952.465-1.311.494 0 .493.039.958.097 1.451-.417.097-1.214 0-1.389.503-.116.339.175.774-.068 1.084-.291.367-.932.048-1.175.57-.175.368.165.832-.088 1.17-.262.35-.816.117-1.107.407-.35.358.087 1.054-.456 1.267-.107.039-.263.03-.38.03.35.706 1.098 1.19 1.633 1.75a133.289 133.289 0 003.71 3.696c2.875 2.776 5.644 5.716 7.528 9.257.379.716.69 1.48 1 2.225.117.28.35.619.273.938-.097.435-.777.474-1.127.59-.942.31-1.865.764-2.817 1.025-.301.078-.729.242-1.02.049-.398-.271-.486-1.035-.68-1.451a21.366 21.366 0 00-1.661-2.94c-.787-1.19-1.836-2.158-2.807-3.183-1.506-1.587-3.03-3.202-4.663-4.663-.592-.532-1.136-1.141-1.69-1.712-.31-.329-.534-.726-.981-.851-.194.793-.758.31-1.204.735-.37.358-.098.967-.059 1.393-.427.077-1.204.01-1.399.503-.126.338.166.764-.068 1.083-.233.32-.738.165-1.039.358-.427.28-.136 1.112-.126 1.529-.437 0-1.282-.04-1.428.493-.087.329.175.793-.087 1.064-.272.28-.845.184-1.205.184 0 .56.049 1.093.097 1.644l-1.36.097c0 .387.166 1.277-.165 1.548-.194.154-.563.096-.806.096 0-.919.146-1.799.194-2.708.04-.803-.068-1.616.02-2.419.106-1.035.476-2.244.233-3.288-.194-.832-1.273-1.616-1.817-2.245-1.03-1.17-2.078-2.34-3.089-3.54-.563-.668-1.291-1.654-2.05-2.06.05-.59.516-.803.904-1.18.933-.91 1.992-1.684 2.914-2.603.301-.31 1.04-.638 1.02-1.141-.01-.28-.31-.503-.485-.697-.564-.629-1.185-1.2-1.797-1.78-1.36-1.306-2.74-2.63-4.022-4.014-.291-.31-1.195-.987-1.195-1.441 0-.3.457-.668.651-.871.476-.493 1.01-.919 1.486-1.403.311-.319.515-.657.875-.928.63-.474 1.146-1.113 1.729-1.645.252-.232.524-.619.922-.464.583.222 1.098.967 1.525 1.393.72.716 1.71 1.45 2.273 2.292.32.484.505 1.345.642 1.906.242.977.398 2.215.951 3.067.156.241.457.715.758.773.466.097 1.098-.793 1.38-1.073.747-.774 1.68-1.393 2.515-2.07.379-.31.69-.687 1.059-.997 3.565-2.97 6.897-6.23 10.452-9.209.913-.764 1.777-1.586 2.68-2.37.282-.242.661-.745 1.05-.822.252-.048.437.155.592.32.38.405.72.85 1.078 1.266.768.871 1.545 1.722 2.303 2.602.408.474 1.058 1.026 1.34 1.577.262.494.32 1.19.32 1.674z" fill="#070605" fill-opacity=".9"/><path d="M40.118 36.43c1.233.32 1.855 1.934 1.292 3.037-.496.977-1.613 1.374-2.652 1.103-1.234-.32-1.855-1.935-1.292-3.037.486-.977 1.613-1.374 2.652-1.103z" fill="#fff"/><path d="M28.238 40.531c.417.145.66.639.952.929.796.793 1.505 1.606 2.234 2.467.767.909 1.602 1.76 2.36 2.68.282.338.69.57.874.986.156.358.117.774.117 1.16 0 .716-.01 1.413-.078 2.129-.184 1.954-.058 3.966-.36 5.9a7.872 7.872 0 00-.096 1.355c.01.338.116.696-.03 1.016-.446.967-1.719 1.712-2.525 2.34-1.107.861-2.127 1.935-3.166 2.873-1.001.91-1.992 1.713-3.44 1.19-1.437-.522-.834-2.157-1.65-3.066-1.098-1.219-2.215-2.438-3.284-3.676-.563-.667-1.146-1.325-1.719-1.983-.389-.445-.66-.938-1.117-1.345-.398-.358-.981-.212-1.457-.396-.952-.358-1.36-1.538-1.146-2.467.194-.832 1.04-1.335 1.622-1.877 1.399-1.306 2.875-2.524 4.303-3.792 1.875-1.663 3.652-3.443 5.605-5.01.447-.358.913-.707 1.35-1.065.175-.145.379-.444.65-.348z" fill="#070605" fill-opacity=".9"/><path d="M30.5 49.237c0 .852-.126 1.674-.185 2.515-.077 1.103-.077 2.187-.184 3.29-.068.648.078 1.683-.224 2.253-.271.523-.864.823-1.282 1.21-.592.531-1.058 1.286-1.904 1.373-.126-.464-.476-.658-.796-.987-.31-.31-.564-.667-.874-.986-.972-.997-1.758-2.196-2.72-3.212-.495-.522-1.428-1.025-1.564-1.79-.116-.628 1.059-1.286 1.477-1.634 1.427-1.19 2.72-2.544 4.157-3.724.34-.28.971-1.103 1.457-1.035.262.038.447.387.622.56.456.446.893.92 1.31 1.403.244.28.38.58.71.764z" fill="#fff"/></g></svg>