<svg width="78" height="77" viewBox="0 0 78 77" fill="none" xmlns="http://www.w3.org/2000/svg">
<g opacity="0.8">
<path d="M78 0V77H0V0H78Z" fill="white"/>
<path d="M42.1566 1.29628C44.653 1.62518 47.0911 1.85734 49.5389 2.50545C53.9101 3.64691 58.1549 5.81375 61.778 8.47392C65.4401 11.1631 68.4998 14.5972 70.9768 18.3795C77.7277 28.6719 78.6117 42.4855 73.6383 53.6872C71.0837 59.4332 66.9457 64.4827 61.9626 68.3037C54.0266 74.3882 43.7205 76.6131 33.9001 75.3266C28.6742 74.6398 23.5066 72.7438 19.116 69.8418C15.3666 67.3654 11.9377 64.3763 9.26647 60.7391C2.29212 51.2592 0.0774307 38.5387 3.59374 27.2693C5.10906 22.4229 7.69287 17.8668 10.9955 14.0168C14.5118 9.91525 19.0772 6.61664 23.9922 4.37241C25.0607 3.88875 26.1972 3.55018 27.2949 3.1439C30.9375 1.81865 34.8812 1.25759 38.7569 1.25759C39.8739 1.25759 41.0493 1.15118 42.1566 1.29628Z" fill="#070605" fill-opacity="0.9"/>
<path d="M38.4662 3.19214C38.6022 3.78221 38.8062 4.96236 39.2821 5.35897C39.5541 5.58146 39.9815 5.51375 40.3118 5.51375H42.8373C42.7305 4.77857 42.3614 4.12078 42.2545 3.38561C43.5658 3.38561 44.8577 3.60809 46.1399 3.86927C46.5188 3.94666 47.2376 3.96601 47.529 4.24654C48.0341 4.7302 47.4707 5.77493 47.8301 6.365C48.0147 6.66488 48.4518 6.73259 48.7723 6.80998C49.6368 7.03247 50.511 7.33234 51.395 7.44842C51.3367 6.75194 51.3658 5.99742 51.2007 5.32028C52.4635 5.42669 53.8622 6.23925 54.989 6.79063C55.329 6.95508 55.9506 7.13887 56.1449 7.47744C56.4752 8.0385 55.8049 8.94779 55.9118 9.55721C55.9701 9.89578 56.378 10.0506 56.6403 10.2053C57.4077 10.66 58.2139 11.2307 59.0687 11.5016C59.0978 10.8244 59.2338 10.1086 59.4572 9.47015C60.6229 9.9635 61.7205 11.0469 62.6627 11.8691C62.9736 12.14 63.4689 12.4399 63.6146 12.8558C63.8575 13.5426 62.8279 14.2004 62.8861 14.8872C62.9153 15.2355 63.3135 15.5257 63.5467 15.7578C64.1392 16.3479 64.7026 17.0154 65.3922 17.499C65.5768 16.8509 65.9848 16.3092 66.1693 15.6611C66.655 15.8062 66.927 16.2415 67.2281 16.6284C67.7818 17.3636 68.3452 18.0988 68.86 18.8533C69.0737 19.1629 69.4622 19.6078 69.4234 20.0141C69.3554 20.759 68.1703 21.0975 68.1412 21.8521C68.1315 22.1229 68.3646 22.4034 68.5006 22.6259C68.8114 23.1386 69.1028 23.6513 69.3942 24.1737C69.5011 24.3671 69.6662 24.7347 69.9479 24.696C70.1616 24.667 70.317 24.4155 70.453 24.2704C70.7541 23.9415 71.0067 23.5933 71.4049 23.3998C72.182 25.0346 72.9397 26.7565 73.3477 28.5267C72.8425 28.7685 71.7546 29.2715 71.5215 29.8036C71.4049 30.0841 71.5895 30.4807 71.6575 30.7516C71.8712 31.5544 72.1626 32.3477 72.2792 33.1699C72.9397 32.8604 73.5031 32.2703 74.2219 32.1058C74.455 33.9148 74.659 35.7043 74.8047 37.5229C74.2122 37.6583 73.0271 37.8615 72.6288 38.3355C72.4054 38.6063 72.4734 39.032 72.4734 39.3609C72.4734 40.2121 72.3666 41.1408 72.5706 41.9727C73.2117 41.6728 73.911 41.4116 74.6104 41.2955C74.6104 43.1141 74.0956 44.836 73.8333 46.6159C73.0562 46.761 72.1917 46.7997 71.4049 46.8093C71.2301 48.0185 70.6958 49.1793 70.5307 50.3885L72.6677 50.2918C72.4831 51.5396 71.7449 52.8455 71.1912 53.9676C71.0164 54.3159 70.8415 54.9156 70.5016 55.1284C69.8993 55.496 68.9863 54.7028 68.3257 54.9156C68.0149 55.0124 67.8595 55.4573 67.7041 55.7088C67.267 56.4344 66.7036 57.2082 66.4607 58.0305C67.131 58.0595 67.8595 58.2046 68.5006 58.4174C67.9566 59.5588 67.0047 60.5746 66.179 61.5129C65.8779 61.8514 65.5477 62.4028 65.1008 62.5576C64.4112 62.7994 63.7506 61.774 63.061 61.8321C62.7113 61.8611 62.4199 62.2577 62.1868 62.4899C61.5942 63.08 60.924 63.641 60.4383 64.3278C61.0794 64.5116 61.7108 64.8599 62.2839 65.1984V65.3919C61.3417 66.098 60.4286 66.8235 59.467 67.5104C59.0687 67.7909 58.5927 68.2262 58.1071 68.3229C57.3008 68.497 56.8734 67.2492 56.1643 67.0847C55.8924 67.0267 55.6107 67.2395 55.3873 67.3653C54.8336 67.6845 54.2799 67.994 53.7359 68.3229C53.5417 68.439 53.1726 68.6034 53.2114 68.884C53.2406 69.0968 53.4834 69.2612 53.6388 69.387C53.9691 69.6772 54.2993 69.9384 54.513 70.3253C52.8617 71.0992 51.1521 71.8537 49.3648 72.26C49.122 71.757 48.6169 70.6735 48.0826 70.4414C47.7718 70.306 47.3347 70.5381 47.0336 70.6252C46.2759 70.8477 45.4794 71.0895 44.7023 71.1959C44.9937 71.873 45.596 72.4051 45.7708 73.1306C44.0418 73.5465 42.1088 73.6723 40.3312 73.711C40.2049 73.1789 39.9912 71.9021 39.5153 71.5828C39.2239 71.3894 38.7188 71.4861 38.3885 71.4861H35.863C36.1738 72.1439 36.4749 72.8887 36.5429 73.6143L33.9203 73.2854L31.1033 72.7436C31.1033 72.2503 31.0742 71.786 31.0256 71.2926C31.0062 71.0508 31.045 70.7606 30.909 70.5478C30.7148 70.2479 30.2582 70.1996 29.9377 70.1222C29.1315 69.919 28.2864 69.7449 27.5093 69.4547C27.5093 70.1705 27.5482 70.867 27.6064 71.5828C26.3631 71.4764 25.0226 70.7026 23.9153 70.1512C23.5462 69.9674 22.8856 69.7739 22.6525 69.416C22.2931 68.8356 23.0216 67.965 22.8565 67.3266C22.7594 66.9686 22.3611 66.8139 22.0697 66.6398C21.3315 66.2045 20.5641 65.6434 19.7384 65.3822C19.7093 66.0497 19.5636 66.7752 19.3499 67.4136C18.2231 66.9396 17.1546 65.9046 16.2416 65.1114C15.9113 64.8212 15.3382 64.4729 15.2119 64.0279C15.0176 63.3508 16.0084 62.693 15.989 62.0256C15.9793 61.7257 15.6102 61.4548 15.4256 61.2517C14.8137 60.6036 14.1531 59.8974 13.4246 59.3847C13.2498 59.8104 13.0458 60.236 12.8127 60.6423C12.735 60.7874 12.6281 61.0098 12.4338 61.0389C12.0939 61.0872 11.7442 60.4778 11.5693 60.2553C10.8408 59.3267 9.85974 58.2626 9.41291 57.1599C9.06322 56.2989 10.5494 55.8346 10.5785 55.0317C10.5883 54.6931 10.2969 54.3449 10.1414 54.0644C9.7626 53.4066 9.30606 52.7488 9.04379 52.033C8.44155 52.4586 8.06272 53.1744 7.39249 53.484C6.77082 52.3232 6.28514 51.056 5.86746 49.8081C5.75089 49.4599 5.44006 48.8408 5.57605 48.4732C5.84803 47.7767 7.24678 47.709 7.31478 46.9061C7.33421 46.5869 7.15936 46.2386 7.07194 45.9387C6.85824 45.2229 6.57655 44.4587 6.51826 43.7139C5.85774 44.0234 5.29436 44.6135 4.57555 44.7779C4.23557 42.998 4.07044 41.1698 3.99274 39.3609C4.58527 39.2254 5.77032 39.0223 6.16858 38.5483C6.39199 38.2774 6.32399 37.8518 6.32399 37.5229V35.0078C5.55662 35.1239 4.86696 35.5205 4.08987 35.5882C4.33271 34.5919 4.323 33.5085 4.48813 32.4928C4.61441 31.7189 4.85725 30.9547 4.96409 30.1712C5.45949 30.1712 5.92574 30.1421 6.42113 30.0938C6.66397 30.0744 6.95538 30.1131 7.16908 29.9777C7.47019 29.7842 7.50905 29.3296 7.59647 29.0104C7.81017 28.2075 7.96559 27.3659 8.257 26.592L6.12001 26.6887C6.22686 25.4215 7.0428 24.0382 7.59647 22.9161C7.7616 22.5776 7.94616 21.9585 8.28613 21.765C8.84953 21.4361 9.7626 22.1036 10.3746 21.9972C10.7145 21.9391 10.8699 21.5328 11.0254 21.2717C11.4819 20.5075 12.055 19.7046 12.327 18.8533C11.6373 18.8436 10.9768 18.5921 10.2871 18.5631C10.4134 18.0698 10.7534 17.7119 11.0448 17.3056C11.5596 16.5994 12.1133 15.932 12.6961 15.2742C12.9681 14.9646 13.2692 14.4713 13.6869 14.3262C14.3765 14.0844 15.0371 15.1097 15.7267 15.0517C16.0764 15.0227 16.3678 14.6261 16.601 14.3939C17.1935 13.8038 17.8637 13.2428 18.3494 12.556C17.7083 12.3722 17.1352 11.9949 16.5038 11.7821C16.6398 11.3371 17.0186 11.0856 17.378 10.7954C18.126 10.1957 18.9128 9.64427 19.7093 9.10257C20.0201 8.88975 20.467 8.50282 20.8749 8.54151C21.6229 8.60922 21.9726 9.78937 22.7205 9.81839C22.9925 9.82807 23.2742 9.59591 23.4976 9.46048C24.0124 9.15093 24.5369 8.86073 25.0518 8.56086C25.2363 8.45445 25.6151 8.28033 25.5763 8.00948C25.5472 7.79666 25.2946 7.64189 25.1489 7.50646C24.8186 7.20659 24.469 6.95508 24.2747 6.55847C25.382 6.03611 26.5185 5.57179 27.6744 5.14616C28.0921 4.99138 28.7623 4.67216 29.2189 4.75922C29.9765 4.89465 30.0348 6.14252 30.7051 6.44239C31.0159 6.58749 31.453 6.365 31.7541 6.26827C32.5021 6.03611 33.3083 5.79427 34.0854 5.68787C33.7746 5.03008 33.182 4.46902 33.0169 3.75319C34.843 3.62744 36.6303 3.26953 38.4662 3.19214Z" fill="white"/>
<path d="M8.35413 30.0841C8.53868 29.3877 9.35462 28.7782 9.87916 28.3042C10.9185 27.3756 11.8801 26.3599 12.8709 25.3926C15.7364 22.6163 18.4368 19.6659 21.3509 16.9284C22.4679 15.874 23.5462 14.8099 24.5952 13.6975C25.0323 13.2331 25.6734 12.8752 25.9357 12.2852C26.6351 12.3335 27.1693 13.0494 27.6161 13.5427C28.5389 14.5681 29.5783 15.4774 30.5594 16.4447C30.9285 16.8026 31.6958 17.4024 31.6084 17.9731C31.5501 18.302 31.2587 18.4761 31.045 18.6986C30.5594 19.1919 30.0542 19.6756 29.5686 20.1689C28.3252 21.4265 27.0722 22.684 25.8094 23.9125C25.0712 24.6284 24.1581 25.3248 23.5656 26.1664C23.3907 26.4083 23.4296 26.6985 23.3907 26.979C23.3227 27.5304 23.2547 28.0721 23.2159 28.6235C23.1285 29.8036 22.9925 31.0225 22.8273 32.2026C22.7496 32.783 22.5554 33.3537 22.5457 33.9438C22.5359 34.7467 22.5359 35.5786 22.3417 36.3622C22.2834 36.575 22.3028 36.9039 22.1571 37.078C21.9628 37.3198 21.4577 37.2424 21.1857 37.2328C20.3018 37.1941 19.3305 36.9522 18.466 36.7394C15.8141 36.072 13.3372 34.5242 11.2779 32.7733C10.2774 31.9318 9.40319 30.8483 8.35413 30.0841ZM63.1387 21.8618C62.7016 21.9392 61.8856 21.8521 61.6914 22.3648C61.5456 22.7517 61.9439 23.1967 61.6234 23.5546C61.2834 23.9319 60.5937 23.603 60.3217 24.0189C60.1178 24.3478 60.4383 24.6961 60.3703 25.0346C60.2829 25.4893 59.3212 25.499 58.9521 25.528C59.0007 25.8859 59.2241 26.6017 58.8938 26.8823C58.5733 27.1628 58.0488 26.9887 57.7768 27.3853C57.5631 27.7045 57.7574 28.0721 57.6602 28.4107C57.5242 28.8846 56.718 28.8073 56.3295 28.8073C56.3295 29.1748 56.5237 29.9971 56.3197 30.297C56.0963 30.6355 55.4067 30.5485 55.0667 30.5485L55.1638 32.0962C54.7947 32.1639 54.1342 32.0962 53.8622 32.3574C53.5417 32.6669 53.8428 33.1603 53.7554 33.5279C53.6485 33.9535 52.8034 33.9922 52.444 34.0212C52.444 34.5145 52.4829 34.9789 52.5412 35.4722C52.1235 35.5689 51.327 35.4722 51.1521 35.9752C51.0356 36.3138 51.327 36.7491 51.0841 37.0586C50.7927 37.4262 50.1516 37.107 49.9088 37.6294C49.7339 37.997 50.0739 38.4613 49.8214 38.7998C49.5591 39.1481 49.0054 38.9159 48.714 39.2061C48.3643 39.564 48.8014 40.2605 48.2575 40.4733C48.1506 40.512 47.9952 40.5024 47.8786 40.5024C48.2283 41.2085 48.9763 41.6922 49.5105 42.2532C50.7247 43.5108 51.9583 44.7393 53.2211 45.9485C56.0963 48.7247 58.8647 51.6654 60.7491 55.2059C61.128 55.9217 61.4388 56.6859 61.7496 57.4307C61.8662 57.7113 62.0993 58.0498 62.0216 58.3691C61.9245 58.8044 61.2445 58.843 60.8948 58.9591C59.9526 59.2687 59.0298 59.7233 58.0779 59.9845C57.7768 60.0619 57.3494 60.2263 57.058 60.0329C56.6597 59.762 56.5723 58.9978 56.378 58.5819C55.9021 57.5565 55.3484 56.5795 54.717 55.6412C53.9302 54.4513 52.8811 53.484 51.9098 52.4586C50.4042 50.8722 48.8791 49.2567 47.2473 47.7961C46.6547 47.264 46.1108 46.6546 45.5571 46.0839C45.2463 45.755 45.0229 45.3584 44.576 45.2326C44.3818 46.0258 43.8184 45.5422 43.3716 45.9678C43.0024 46.3257 43.2744 46.9351 43.3133 47.3608C42.8859 47.4382 42.1088 47.3704 41.9145 47.8638C41.7882 48.2023 42.0796 48.628 41.8465 48.9472C41.6134 49.2664 41.1083 49.1116 40.8072 49.3051C40.3798 49.5856 40.6712 50.4175 40.6809 50.8335C40.2438 50.8335 39.3987 50.7948 39.253 51.3268C39.1656 51.6557 39.4278 52.1201 39.1656 52.3909C38.8936 52.6714 38.3205 52.5747 37.9611 52.5747C37.9611 53.1358 38.0097 53.6678 38.0582 54.2192L36.6983 54.3159C36.6983 54.7028 36.8635 55.5928 36.5332 55.8637C36.3389 56.0184 35.9698 55.9604 35.727 55.9604C35.727 55.0414 35.8727 54.1611 35.9212 53.2518C35.9601 52.449 35.8532 51.6364 35.9407 50.8335C36.0475 49.7985 36.4166 48.5893 36.1738 47.5446C35.9795 46.7127 34.9013 45.9291 34.3574 45.3003C33.3277 44.1299 32.2787 42.9594 31.2684 41.7599C30.7051 41.0924 29.9765 40.1057 29.2189 39.6995C29.2674 39.1094 29.7337 38.8966 30.1222 38.5193C31.0547 37.61 32.1135 36.8361 33.0363 35.9172C33.3374 35.6076 34.0757 35.2787 34.0562 34.7757C34.0465 34.4952 33.7454 34.2727 33.5706 34.0792C33.0072 33.4505 32.3855 32.8797 31.7735 32.2993C30.4136 30.9934 29.0343 29.6682 27.7521 28.2849C27.4607 27.9753 26.5574 27.2982 26.5574 26.8436C26.5574 26.5437 27.0139 26.1761 27.2082 25.973C27.6841 25.4796 28.2184 25.054 28.6943 24.5703C29.0052 24.2511 29.2092 23.9125 29.5686 23.6417C30.1999 23.1677 30.7148 22.5292 31.2976 21.9972C31.5501 21.765 31.8221 21.3781 32.2204 21.5329C32.8032 21.7554 33.318 22.5002 33.7454 22.9259C34.4642 23.6417 35.455 24.3769 36.0184 25.2184C36.3389 25.7021 36.5235 26.563 36.6595 27.1241C36.9023 28.1011 37.0577 29.3393 37.6114 30.1905C37.7668 30.4324 38.0679 30.9064 38.3691 30.9644C38.8353 31.0612 39.4667 30.1712 39.7484 29.8907C40.4963 29.1168 41.4288 28.4977 42.2642 27.8206C42.643 27.511 42.9539 27.1338 43.323 26.8242C46.8879 23.8545 50.2196 20.5946 53.7748 17.6152C54.6879 16.851 55.5524 16.0287 56.4557 15.2452C56.7374 15.0034 57.1163 14.5004 57.5048 14.423C57.7574 14.3746 57.9419 14.5777 58.0973 14.7422C58.4762 15.1485 58.8161 15.5934 59.1755 16.0094C59.9429 16.88 60.72 17.7313 61.4777 18.6115C61.8856 19.0855 62.5364 19.6369 62.8181 20.1883C63.0804 20.6816 63.1387 21.3781 63.1387 21.8618Z" fill="#070605" fill-opacity="0.9"/>
<path d="M40.1179 36.4299C41.3515 36.7491 41.9732 38.3645 41.4098 39.4673C40.9144 40.4443 39.7974 40.8409 38.758 40.5701C37.5244 40.2508 36.9027 38.6354 37.4661 37.5326C37.9518 36.5556 39.0786 36.159 40.1179 36.4299Z" fill="white"/>
<path d="M28.2378 40.5313C28.6554 40.6764 28.8983 41.1697 29.1897 41.4599C29.9862 42.2532 30.6953 43.0657 31.4238 43.9267C32.1912 44.8359 33.0265 45.6872 33.7842 46.6062C34.0659 46.9447 34.4739 47.1769 34.6584 47.5929C34.8138 47.9508 34.775 48.3667 34.775 48.7537C34.775 49.4695 34.7653 50.166 34.6973 50.8818C34.5127 52.8358 34.639 54.8479 34.3379 56.7826C34.2699 57.2082 34.231 57.7015 34.2407 58.1368C34.2504 58.4754 34.3573 58.8333 34.2116 59.1525C33.7648 60.1199 32.4923 60.8647 31.6861 61.4935C30.5787 62.3544 29.5588 63.4282 28.5195 64.3665C27.519 65.2758 26.5282 66.0787 25.0809 65.5563C23.6433 65.0339 24.2455 63.3991 23.4296 62.4898C22.3319 61.271 21.2149 60.0522 20.1464 58.814C19.583 58.1465 19.0002 57.4887 18.4271 56.8309C18.0385 56.386 17.7666 55.8926 17.31 55.4863C16.9118 55.1284 16.329 55.2735 15.853 55.0897C14.9011 54.7318 14.4931 53.5517 14.7068 52.623C14.9011 51.7911 15.7461 51.2881 16.329 50.7464C17.7277 49.4405 19.2042 48.2216 20.6321 46.9544C22.5068 45.2906 24.2843 43.5107 26.2368 41.9436C26.6836 41.5857 27.1498 41.2375 27.587 40.8795C27.7618 40.7344 27.9658 40.4346 28.2378 40.5313Z" fill="#070605" fill-opacity="0.9"/>
<path d="M30.5 49.2374C30.5 50.0887 30.3737 50.9109 30.3154 51.7525C30.2377 52.8553 30.2377 53.9387 30.1309 55.0414C30.0629 55.6896 30.2086 56.7246 29.9075 57.2953C29.6355 57.8177 29.043 58.1176 28.6253 58.5045C28.0328 59.0365 27.5665 59.791 26.7214 59.8781C26.5952 59.4138 26.2455 59.2203 25.9249 58.8914C25.6141 58.5819 25.3615 58.224 25.0507 57.9047C24.0794 56.9084 23.2926 55.7089 22.3309 54.6932C21.8355 54.1708 20.903 53.6678 20.767 52.9036C20.6505 52.2749 21.8258 51.6171 22.2435 51.2688C23.6714 50.079 24.9633 48.7248 26.4009 47.5446C26.7409 47.2641 27.3722 46.4418 27.8579 46.5096C28.1202 46.5483 28.3047 46.8965 28.4796 47.0706C28.9361 47.5156 29.3732 47.9896 29.7909 48.4732C30.0338 48.7538 30.1697 49.0536 30.5 49.2374Z" fill="white"/>
</g>
</svg>
